ISO-10303-21;
HEADER;
/* Generated by software containing ST-Developer
 * from STEP Tools, Inc. (www.steptools.com) 
 */

FILE_DESCRIPTION(
/* description */ (''),
/* implementation_level */ '2;1');

FILE_NAME(
/* name */ 'PlugInParasite.step',
/* time_stamp */ '2026-05-16T20:07:54+03:00',
/* author */ (''),
/* organization */ (''),
/* preprocessor_version */ 'ST-DEVELOPER v20.1',
/* originating_system */ 'Autodesk Translation Framework v15.8.0.0',
/* authorisation */ '');

FILE_SCHEMA (('AUTOMOTIVE_DESIGN { 1 0 10303 214 3 1 1 }'));
ENDSEC;

DATA;
#10=MECHANICAL_DESIGN_GEOMETRIC_PRESENTATION_REPRESENTATION('',(#57,#58,
#59,#60,#61,#62,#63,#64,#65,#66,#67,#68,#69,#70,#71,#72,#73,#74,#75,#76,
#77,#78,#79,#80,#81),#1771);
#11=ITEM_DEFINED_TRANSFORMATION($,$,#1009,#1154);
#12=ITEM_DEFINED_TRANSFORMATION($,$,#1034,#1155);
#13=ITEM_DEFINED_TRANSFORMATION($,$,#1047,#1156);
#14=ITEM_DEFINED_TRANSFORMATION($,$,#1073,#1157);
#15=ITEM_DEFINED_TRANSFORMATION($,$,#1099,#1158);
#16=ITEM_DEFINED_TRANSFORMATION($,$,#1110,#1159);
#17=ITEM_DEFINED_TRANSFORMATION($,$,#1112,#1160);
#18=ITEM_DEFINED_TRANSFORMATION($,$,#1113,#1161);
#19=(
REPRESENTATION_RELATIONSHIP($,$,#1803,#1802)
REPRESENTATION_RELATIONSHIP_WITH_TRANSFORMATION(#11)
SHAPE_REPRESENTATION_RELATIONSHIP()
);
#20=(
REPRESENTATION_RELATIONSHIP($,$,#1804,#1802)
REPRESENTATION_RELATIONSHIP_WITH_TRANSFORMATION(#12)
SHAPE_REPRESENTATION_RELATIONSHIP()
);
#21=(
REPRESENTATION_RELATIONSHIP($,$,#1805,#1802)
REPRESENTATION_RELATIONSHIP_WITH_TRANSFORMATION(#13)
SHAPE_REPRESENTATION_RELATIONSHIP()
);
#22=(
REPRESENTATION_RELATIONSHIP($,$,#1806,#1802)
REPRESENTATION_RELATIONSHIP_WITH_TRANSFORMATION(#14)
SHAPE_REPRESENTATION_RELATIONSHIP()
);
#23=(
REPRESENTATION_RELATIONSHIP($,$,#1807,#1802)
REPRESENTATION_RELATIONSHIP_WITH_TRANSFORMATION(#15)
SHAPE_REPRESENTATION_RELATIONSHIP()
);
#24=(
REPRESENTATION_RELATIONSHIP($,$,#1808,#1802)
REPRESENTATION_RELATIONSHIP_WITH_TRANSFORMATION(#16)
SHAPE_REPRESENTATION_RELATIONSHIP()
);
#25=(
REPRESENTATION_RELATIONSHIP($,$,#1809,#1802)
REPRESENTATION_RELATIONSHIP_WITH_TRANSFORMATION(#17)
SHAPE_REPRESENTATION_RELATIONSHIP()
);
#26=(
REPRESENTATION_RELATIONSHIP($,$,#1810,#1802)
REPRESENTATION_RELATIONSHIP_WITH_TRANSFORMATION(#18)
SHAPE_REPRESENTATION_RELATIONSHIP()
);
#27=CONTEXT_DEPENDENT_SHAPE_REPRESENTATION(#19,#1794);
#28=CONTEXT_DEPENDENT_SHAPE_REPRESENTATION(#20,#1795);
#29=CONTEXT_DEPENDENT_SHAPE_REPRESENTATION(#21,#1796);
#30=CONTEXT_DEPENDENT_SHAPE_REPRESENTATION(#22,#1797);
#31=CONTEXT_DEPENDENT_SHAPE_REPRESENTATION(#23,#1798);
#32=CONTEXT_DEPENDENT_SHAPE_REPRESENTATION(#24,#1799);
#33=CONTEXT_DEPENDENT_SHAPE_REPRESENTATION(#25,#1800);
#34=CONTEXT_DEPENDENT_SHAPE_REPRESENTATION(#26,#1801);
#35=NEXT_ASSEMBLY_USAGE_OCCURRENCE('Mast:1','Mast:1','Mast:1',#1812,#1813,
'Mast:1');
#36=NEXT_ASSEMBLY_USAGE_OCCURRENCE('Socket:1','Socket:1','Socket:1',#1812,
#1814,'Socket:1');
#37=NEXT_ASSEMBLY_USAGE_OCCURRENCE('LowerCanopy:1','LowerCanopy:1',
'LowerCanopy:1',#1812,#1815,'LowerCanopy:1');
#38=NEXT_ASSEMBLY_USAGE_OCCURRENCE('UpperCanopy:1','UpperCanopy:1',
'UpperCanopy:1',#1812,#1816,'UpperCanopy:1');
#39=NEXT_ASSEMBLY_USAGE_OCCURRENCE('TopMast:1','TopMast:1','TopMast:1',
#1812,#1817,'TopMast:1');
#40=NEXT_ASSEMBLY_USAGE_OCCURRENCE('Fabrics:1','Fabrics:1','Fabrics:1',
#1812,#1818,'Fabrics:1');
#41=NEXT_ASSEMBLY_USAGE_OCCURRENCE('Rigging:1','Rigging:1','Rigging:1',
#1812,#1819,'Rigging:1');
#42=NEXT_ASSEMBLY_USAGE_OCCURRENCE('Storage:1','Storage:1','Storage:1',
#1812,#1820,'Storage:1');
#43=OPEN_SHELL('',(#870));
#44=SHELL_BASED_SURFACE_MODEL('top_membrane',(#43));
#45=SHAPE_REPRESENTATION_RELATIONSHIP('SRR','None',#1803,#51);
#46=SHAPE_REPRESENTATION_RELATIONSHIP('SRR','None',#1804,#52);
#47=SHAPE_REPRESENTATION_RELATIONSHIP('SRR','None',#1805,#53);
#48=SHAPE_REPRESENTATION_RELATIONSHIP('SRR','None',#1806,#54);
#49=SHAPE_REPRESENTATION_RELATIONSHIP('SRR','None',#1807,#55);
#50=SHAPE_REPRESENTATION_RELATIONSHIP('SRR','None',#1810,#56);
#51=ADVANCED_BREP_SHAPE_REPRESENTATION('',(#82,#83,#84),#1763);
#52=ADVANCED_BREP_SHAPE_REPRESENTATION('',(#85),#1764);
#53=ADVANCED_BREP_SHAPE_REPRESENTATION('',(#86,#87,#88,#89,#90),#1765);
#54=ADVANCED_BREP_SHAPE_REPRESENTATION('',(#91,#92,#93,#94,#95),#1766);
#55=ADVANCED_BREP_SHAPE_REPRESENTATION('',(#96,#97),#1767);
#56=ADVANCED_BREP_SHAPE_REPRESENTATION('',(#98,#99,#100,#101,#102,#103,
#104,#105),#1770);
#57=STYLED_ITEM('',(#1851),#82);
#58=STYLED_ITEM('',(#1851),#83);
#59=STYLED_ITEM('',(#1851),#84);
#60=STYLED_ITEM('',(#1851),#85);
#61=STYLED_ITEM('',(#1851),#86);
#62=STYLED_ITEM('',(#1851),#87);
#63=STYLED_ITEM('',(#1851),#88);
#64=STYLED_ITEM('',(#1851),#89);
#65=STYLED_ITEM('',(#1851),#90);
#66=STYLED_ITEM('',(#1851),#91);
#67=STYLED_ITEM('',(#1851),#92);
#68=STYLED_ITEM('',(#1851),#93);
#69=STYLED_ITEM('',(#1851),#94);
#70=STYLED_ITEM('',(#1851),#95);
#71=STYLED_ITEM('',(#1851),#96);
#72=STYLED_ITEM('',(#1851),#97);
#73=STYLED_ITEM('',(#1851),#44);
#74=STYLED_ITEM('',(#1851),#98);
#75=STYLED_ITEM('',(#1851),#99);
#76=STYLED_ITEM('',(#1851),#100);
#77=STYLED_ITEM('',(#1851),#101);
#78=STYLED_ITEM('',(#1851),#102);
#79=STYLED_ITEM('',(#1851),#103);
#80=STYLED_ITEM('',(#1851),#104);
#81=STYLED_ITEM('',(#1851),#105);
#82=MANIFOLD_SOLID_BREP('Mast_Seg1',#895);
#83=MANIFOLD_SOLID_BREP('Mast_Seg2',#896);
#84=MANIFOLD_SOLID_BREP('Mast_Seg3',#897);
#85=MANIFOLD_SOLID_BREP('Socket_Body',#898);
#86=MANIFOLD_SOLID_BREP('LowerHub',#899);
#87=MANIFOLD_SOLID_BREP('LowerSpar_1',#900);
#88=MANIFOLD_SOLID_BREP('LowerSpar_1 (1)',#901);
#89=MANIFOLD_SOLID_BREP('LowerSpar_1 (2)',#902);
#90=MANIFOLD_SOLID_BREP('LowerSpar_1 (3)',#903);
#91=MANIFOLD_SOLID_BREP('UpperHub',#904);
#92=MANIFOLD_SOLID_BREP('UpperSpar_1',#905);
#93=MANIFOLD_SOLID_BREP('UpperSpar_1 (1)',#906);
#94=MANIFOLD_SOLID_BREP('UpperSpar_1 (2)',#907);
#95=MANIFOLD_SOLID_BREP('UpperSpar_1 (3)',#908);
#96=MANIFOLD_SOLID_BREP('Yard',#909);
#97=MANIFOLD_SOLID_BREP('Pennant',#910);
#98=MANIFOLD_SOLID_BREP('LowerHorizRope_1',#911);
#99=MANIFOLD_SOLID_BREP('LowerHorizRope_1 (1)',#912);
#100=MANIFOLD_SOLID_BREP('LowerHorizRope_1 (2)',#913);
#101=MANIFOLD_SOLID_BREP('LowerHorizRope_1 (3)',#914);
#102=MANIFOLD_SOLID_BREP('UpperHorizRope_1',#915);
#103=MANIFOLD_SOLID_BREP('UpperHorizRope_1 (1)',#916);
#104=MANIFOLD_SOLID_BREP('UpperHorizRope_1 (2)',#917);
#105=MANIFOLD_SOLID_BREP('UpperHorizRope_1 (3)',#918);
#106=FACE_BOUND('',#247,.T.);
#107=FACE_BOUND('',#249,.T.);
#108=FACE_BOUND('',#253,.T.);
#109=FACE_BOUND('',#255,.T.);
#110=FACE_BOUND('',#259,.T.);
#111=FACE_BOUND('',#261,.T.);
#112=FACE_BOUND('',#265,.T.);
#113=FACE_BOUND('',#268,.T.);
#114=FACE_BOUND('',#270,.T.);
#115=PLANE('',#1016);
#116=PLANE('',#1017);
#117=PLANE('',#1024);
#118=PLANE('',#1025);
#119=PLANE('',#1032);
#120=PLANE('',#1033);
#121=PLANE('',#1041);
#122=PLANE('',#1045);
#123=PLANE('',#1046);
#124=PLANE('',#1051);
#125=PLANE('',#1052);
#126=PLANE('',#1056);
#127=PLANE('',#1057);
#128=PLANE('',#1061);
#129=PLANE('',#1062);
#130=PLANE('',#1066);
#131=PLANE('',#1067);
#132=PLANE('',#1071);
#133=PLANE('',#1072);
#134=PLANE('',#1077);
#135=PLANE('',#1078);
#136=PLANE('',#1082);
#137=PLANE('',#1083);
#138=PLANE('',#1087);
#139=PLANE('',#1088);
#140=PLANE('',#1092);
#141=PLANE('',#1093);
#142=PLANE('',#1097);
#143=PLANE('',#1098);
#144=PLANE('',#1103);
#145=PLANE('',#1104);
#146=PLANE('',#1108);
#147=PLANE('',#1109);
#148=PLANE('',#1111);
#149=PLANE('',#1117);
#150=PLANE('',#1118);
#151=PLANE('',#1122);
#152=PLANE('',#1123);
#153=PLANE('',#1127);
#154=PLANE('',#1128);
#155=PLANE('',#1132);
#156=PLANE('',#1133);
#157=PLANE('',#1137);
#158=PLANE('',#1138);
#159=PLANE('',#1142);
#160=PLANE('',#1143);
#161=PLANE('',#1147);
#162=PLANE('',#1148);
#163=PLANE('',#1152);
#164=PLANE('',#1153);
#165=FACE_OUTER_BOUND('',#244,.T.);
#166=FACE_OUTER_BOUND('',#245,.T.);
#167=FACE_OUTER_BOUND('',#246,.T.);
#168=FACE_OUTER_BOUND('',#248,.T.);
#169=FACE_OUTER_BOUND('',#250,.T.);
#170=FACE_OUTER_BOUND('',#251,.T.);
#171=FACE_OUTER_BOUND('',#252,.T.);
#172=FACE_OUTER_BOUND('',#254,.T.);
#173=FACE_OUTER_BOUND('',#256,.T.);
#174=FACE_OUTER_BOUND('',#257,.T.);
#175=FACE_OUTER_BOUND('',#258,.T.);
#176=FACE_OUTER_BOUND('',#260,.T.);
#177=FACE_OUTER_BOUND('',#262,.T.);
#178=FACE_OUTER_BOUND('',#263,.T.);
#179=FACE_OUTER_BOUND('',#264,.T.);
#180=FACE_OUTER_BOUND('',#266,.T.);
#181=FACE_OUTER_BOUND('',#267,.T.);
#182=FACE_OUTER_BOUND('',#269,.T.);
#183=FACE_OUTER_BOUND('',#271,.T.);
#184=FACE_OUTER_BOUND('',#272,.T.);
#185=FACE_OUTER_BOUND('',#273,.T.);
#186=FACE_OUTER_BOUND('',#274,.T.);
#187=FACE_OUTER_BOUND('',#275,.T.);
#188=FACE_OUTER_BOUND('',#276,.T.);
#189=FACE_OUTER_BOUND('',#277,.T.);
#190=FACE_OUTER_BOUND('',#278,.T.);
#191=FACE_OUTER_BOUND('',#279,.T.);
#192=FACE_OUTER_BOUND('',#280,.T.);
#193=FACE_OUTER_BOUND('',#281,.T.);
#194=FACE_OUTER_BOUND('',#282,.T.);
#195=FACE_OUTER_BOUND('',#283,.T.);
#196=FACE_OUTER_BOUND('',#284,.T.);
#197=FACE_OUTER_BOUND('',#285,.T.);
#198=FACE_OUTER_BOUND('',#286,.T.);
#199=FACE_OUTER_BOUND('',#287,.T.);
#200=FACE_OUTER_BOUND('',#288,.T.);
#201=FACE_OUTER_BOUND('',#289,.T.);
#202=FACE_OUTER_BOUND('',#290,.T.);
#203=FACE_OUTER_BOUND('',#291,.T.);
#204=FACE_OUTER_BOUND('',#292,.T.);
#205=FACE_OUTER_BOUND('',#293,.T.);
#206=FACE_OUTER_BOUND('',#294,.T.);
#207=FACE_OUTER_BOUND('',#295,.T.);
#208=FACE_OUTER_BOUND('',#296,.T.);
#209=FACE_OUTER_BOUND('',#297,.T.);
#210=FACE_OUTER_BOUND('',#298,.T.);
#211=FACE_OUTER_BOUND('',#299,.T.);
#212=FACE_OUTER_BOUND('',#300,.T.);
#213=FACE_OUTER_BOUND('',#301,.T.);
#214=FACE_OUTER_BOUND('',#302,.T.);
#215=FACE_OUTER_BOUND('',#303,.T.);
#216=FACE_OUTER_BOUND('',#304,.T.);
#217=FACE_OUTER_BOUND('',#305,.T.);
#218=FACE_OUTER_BOUND('',#306,.T.);
#219=FACE_OUTER_BOUND('',#307,.T.);
#220=FACE_OUTER_BOUND('',#308,.T.);
#221=FACE_OUTER_BOUND('',#309,.T.);
#222=FACE_OUTER_BOUND('',#310,.T.);
#223=FACE_OUTER_BOUND('',#311,.T.);
#224=FACE_OUTER_BOUND('',#312,.T.);
#225=FACE_OUTER_BOUND('',#313,.T.);
#226=FACE_OUTER_BOUND('',#314,.T.);
#227=FACE_OUTER_BOUND('',#315,.T.);
#228=FACE_OUTER_BOUND('',#316,.T.);
#229=FACE_OUTER_BOUND('',#317,.T.);
#230=FACE_OUTER_BOUND('',#318,.T.);
#231=FACE_OUTER_BOUND('',#319,.T.);
#232=FACE_OUTER_BOUND('',#320,.T.);
#233=FACE_OUTER_BOUND('',#321,.T.);
#234=FACE_OUTER_BOUND('',#322,.T.);
#235=FACE_OUTER_BOUND('',#323,.T.);
#236=FACE_OUTER_BOUND('',#324,.T.);
#237=FACE_OUTER_BOUND('',#325,.T.);
#238=FACE_OUTER_BOUND('',#326,.T.);
#239=FACE_OUTER_BOUND('',#327,.T.);
#240=FACE_OUTER_BOUND('',#328,.T.);
#241=FACE_OUTER_BOUND('',#329,.T.);
#242=FACE_OUTER_BOUND('',#330,.T.);
#243=FACE_OUTER_BOUND('',#331,.T.);
#244=EDGE_LOOP('',(#609,#610,#611,#612));
#245=EDGE_LOOP('',(#613,#614,#615,#616));
#246=EDGE_LOOP('',(#617));
#247=EDGE_LOOP('',(#618));
#248=EDGE_LOOP('',(#619));
#249=EDGE_LOOP('',(#620));
#250=EDGE_LOOP('',(#621,#622,#623,#624));
#251=EDGE_LOOP('',(#625,#626,#627,#628));
#252=EDGE_LOOP('',(#629));
#253=EDGE_LOOP('',(#630));
#254=EDGE_LOOP('',(#631));
#255=EDGE_LOOP('',(#632));
#256=EDGE_LOOP('',(#633,#634,#635,#636));
#257=EDGE_LOOP('',(#637,#638,#639,#640));
#258=EDGE_LOOP('',(#641));
#259=EDGE_LOOP('',(#642));
#260=EDGE_LOOP('',(#643));
#261=EDGE_LOOP('',(#644));
#262=EDGE_LOOP('',(#645,#646,#647,#648));
#263=EDGE_LOOP('',(#649,#650,#651,#652));
#264=EDGE_LOOP('',(#653));
#265=EDGE_LOOP('',(#654));
#266=EDGE_LOOP('',(#655,#656,#657,#658));
#267=EDGE_LOOP('',(#659));
#268=EDGE_LOOP('',(#660));
#269=EDGE_LOOP('',(#661));
#270=EDGE_LOOP('',(#662));
#271=EDGE_LOOP('',(#663,#664,#665,#666));
#272=EDGE_LOOP('',(#667));
#273=EDGE_LOOP('',(#668));
#274=EDGE_LOOP('',(#669,#670,#671,#672));
#275=EDGE_LOOP('',(#673));
#276=EDGE_LOOP('',(#674));
#277=EDGE_LOOP('',(#675,#676,#677,#678));
#278=EDGE_LOOP('',(#679));
#279=EDGE_LOOP('',(#680));
#280=EDGE_LOOP('',(#681,#682,#683,#684));
#281=EDGE_LOOP('',(#685));
#282=EDGE_LOOP('',(#686));
#283=EDGE_LOOP('',(#687,#688,#689,#690));
#284=EDGE_LOOP('',(#691));
#285=EDGE_LOOP('',(#692));
#286=EDGE_LOOP('',(#693,#694,#695,#696));
#287=EDGE_LOOP('',(#697));
#288=EDGE_LOOP('',(#698));
#289=EDGE_LOOP('',(#699,#700,#701,#702));
#290=EDGE_LOOP('',(#703));
#291=EDGE_LOOP('',(#704));
#292=EDGE_LOOP('',(#705,#706,#707,#708));
#293=EDGE_LOOP('',(#709));
#294=EDGE_LOOP('',(#710));
#295=EDGE_LOOP('',(#711,#712,#713,#714));
#296=EDGE_LOOP('',(#715));
#297=EDGE_LOOP('',(#716));
#298=EDGE_LOOP('',(#717,#718,#719,#720));
#299=EDGE_LOOP('',(#721));
#300=EDGE_LOOP('',(#722));
#301=EDGE_LOOP('',(#723,#724,#725,#726));
#302=EDGE_LOOP('',(#727));
#303=EDGE_LOOP('',(#728));
#304=EDGE_LOOP('',(#729,#730,#731,#732));
#305=EDGE_LOOP('',(#733));
#306=EDGE_LOOP('',(#734));
#307=EDGE_LOOP('',(#735,#736,#737,#738));
#308=EDGE_LOOP('',(#739,#740,#741,#742));
#309=EDGE_LOOP('',(#743));
#310=EDGE_LOOP('',(#744));
#311=EDGE_LOOP('',(#745,#746,#747,#748));
#312=EDGE_LOOP('',(#749));
#313=EDGE_LOOP('',(#750));
#314=EDGE_LOOP('',(#751,#752,#753,#754));
#315=EDGE_LOOP('',(#755));
#316=EDGE_LOOP('',(#756));
#317=EDGE_LOOP('',(#757,#758,#759,#760));
#318=EDGE_LOOP('',(#761));
#319=EDGE_LOOP('',(#762));
#320=EDGE_LOOP('',(#763,#764,#765,#766));
#321=EDGE_LOOP('',(#767));
#322=EDGE_LOOP('',(#768));
#323=EDGE_LOOP('',(#769,#770,#771,#772));
#324=EDGE_LOOP('',(#773));
#325=EDGE_LOOP('',(#774));
#326=EDGE_LOOP('',(#775,#776,#777,#778));
#327=EDGE_LOOP('',(#779));
#328=EDGE_LOOP('',(#780));
#329=EDGE_LOOP('',(#781,#782,#783,#784));
#330=EDGE_LOOP('',(#785));
#331=EDGE_LOOP('',(#786));
#332=LINE('',#1509,#365);
#333=LINE('',#1515,#366);
#334=LINE('',#1523,#367);
#335=LINE('',#1529,#368);
#336=LINE('',#1537,#369);
#337=LINE('',#1543,#370);
#338=LINE('',#1552,#371);
#339=LINE('',#1558,#372);
#340=LINE('',#1565,#373);
#341=LINE('',#1574,#374);
#342=LINE('',#1582,#375);
#343=LINE('',#1590,#376);
#344=LINE('',#1598,#377);
#345=LINE('',#1606,#378);
#346=LINE('',#1615,#379);
#347=LINE('',#1623,#380);
#348=LINE('',#1631,#381);
#349=LINE('',#1639,#382);
#350=LINE('',#1647,#383);
#351=LINE('',#1656,#384);
#352=LINE('',#1664,#385);
#353=LINE('',#1672,#386);
#354=LINE('',#1674,#387);
#355=LINE('',#1676,#388);
#356=LINE('',#1677,#389);
#357=LINE('',#1684,#390);
#358=LINE('',#1692,#391);
#359=LINE('',#1700,#392);
#360=LINE('',#1708,#393);
#361=LINE('',#1716,#394);
#362=LINE('',#1724,#395);
#363=LINE('',#1732,#396);
#364=LINE('',#1740,#397);
#365=VECTOR('',#1170,1.45);
#366=VECTOR('',#1177,1.6);
#367=VECTOR('',#1188,1.13);
#368=VECTOR('',#1195,1.25);
#369=VECTOR('',#1206,0.85);
#370=VECTOR('',#1213,0.95);
#371=VECTOR('',#1226,1.625);
#372=VECTOR('',#1233,4.5);
#373=VECTOR('',#1242,5.3);
#374=VECTOR('',#1255,2.2);
#375=VECTOR('',#1266,0.4);
#376=VECTOR('',#1277,0.4);
#377=VECTOR('',#1288,0.4);
#378=VECTOR('',#1299,0.4);
#379=VECTOR('',#1312,1.75);
#380=VECTOR('',#1323,0.3);
#381=VECTOR('',#1334,0.3);
#382=VECTOR('',#1345,0.3);
#383=VECTOR('',#1356,0.3);
#384=VECTOR('',#1369,0.3);
#385=VECTOR('',#1380,0.15);
#386=VECTOR('',#1391,1.);
#387=VECTOR('',#1392,1.);
#388=VECTOR('',#1393,1.);
#389=VECTOR('',#1394,1.);
#390=VECTOR('',#1403,0.1);
#391=VECTOR('',#1414,0.1);
#392=VECTOR('',#1425,0.1);
#393=VECTOR('',#1436,0.1);
#394=VECTOR('',#1447,0.1);
#395=VECTOR('',#1458,0.1);
#396=VECTOR('',#1469,0.1);
#397=VECTOR('',#1480,0.1);
#398=CIRCLE('',#1011,1.45);
#399=CIRCLE('',#1012,1.45);
#400=CIRCLE('',#1014,1.6);
#401=CIRCLE('',#1015,1.6);
#402=CIRCLE('',#1019,1.13);
#403=CIRCLE('',#1020,1.13);
#404=CIRCLE('',#1022,1.25);
#405=CIRCLE('',#1023,1.25);
#406=CIRCLE('',#1027,0.85);
#407=CIRCLE('',#1028,0.85);
#408=CIRCLE('',#1030,0.95);
#409=CIRCLE('',#1031,0.95);
#410=CIRCLE('',#1036,1.625);
#411=CIRCLE('',#1037,1.625);
#412=CIRCLE('',#1039,4.5);
#413=CIRCLE('',#1040,4.5);
#414=CIRCLE('',#1043,5.3);
#415=CIRCLE('',#1044,5.3);
#416=CIRCLE('',#1049,2.2);
#417=CIRCLE('',#1050,2.2);
#418=CIRCLE('',#1054,0.4);
#419=CIRCLE('',#1055,0.4);
#420=CIRCLE('',#1059,0.4);
#421=CIRCLE('',#1060,0.4);
#422=CIRCLE('',#1064,0.4);
#423=CIRCLE('',#1065,0.4);
#424=CIRCLE('',#1069,0.4);
#425=CIRCLE('',#1070,0.4);
#426=CIRCLE('',#1075,1.75);
#427=CIRCLE('',#1076,1.75);
#428=CIRCLE('',#1080,0.3);
#429=CIRCLE('',#1081,0.3);
#430=CIRCLE('',#1085,0.3);
#431=CIRCLE('',#1086,0.3);
#432=CIRCLE('',#1090,0.3);
#433=CIRCLE('',#1091,0.3);
#434=CIRCLE('',#1095,0.3);
#435=CIRCLE('',#1096,0.3);
#436=CIRCLE('',#1101,0.3);
#437=CIRCLE('',#1102,0.3);
#438=CIRCLE('',#1106,0.15);
#439=CIRCLE('',#1107,0.15);
#440=CIRCLE('',#1115,0.1);
#441=CIRCLE('',#1116,0.1);
#442=CIRCLE('',#1120,0.1);
#443=CIRCLE('',#1121,0.1);
#444=CIRCLE('',#1125,0.1);
#445=CIRCLE('',#1126,0.1);
#446=CIRCLE('',#1130,0.1);
#447=CIRCLE('',#1131,0.1);
#448=CIRCLE('',#1135,0.1);
#449=CIRCLE('',#1136,0.1);
#450=CIRCLE('',#1140,0.1);
#451=CIRCLE('',#1141,0.1);
#452=CIRCLE('',#1145,0.1);
#453=CIRCLE('',#1146,0.1);
#454=CIRCLE('',#1150,0.1);
#455=CIRCLE('',#1151,0.1);
#456=VERTEX_POINT('',#1506);
#457=VERTEX_POINT('',#1508);
#458=VERTEX_POINT('',#1512);
#459=VERTEX_POINT('',#1514);
#460=VERTEX_POINT('',#1520);
#461=VERTEX_POINT('',#1522);
#462=VERTEX_POINT('',#1526);
#463=VERTEX_POINT('',#1528);
#464=VERTEX_POINT('',#1534);
#465=VERTEX_POINT('',#1536);
#466=VERTEX_POINT('',#1540);
#467=VERTEX_POINT('',#1542);
#468=VERTEX_POINT('',#1549);
#469=VERTEX_POINT('',#1551);
#470=VERTEX_POINT('',#1555);
#471=VERTEX_POINT('',#1557);
#472=VERTEX_POINT('',#1562);
#473=VERTEX_POINT('',#1564);
#474=VERTEX_POINT('',#1571);
#475=VERTEX_POINT('',#1573);
#476=VERTEX_POINT('',#1579);
#477=VERTEX_POINT('',#1581);
#478=VERTEX_POINT('',#1587);
#479=VERTEX_POINT('',#1589);
#480=VERTEX_POINT('',#1595);
#481=VERTEX_POINT('',#1597);
#482=VERTEX_POINT('',#1603);
#483=VERTEX_POINT('',#1605);
#484=VERTEX_POINT('',#1612);
#485=VERTEX_POINT('',#1614);
#486=VERTEX_POINT('',#1620);
#487=VERTEX_POINT('',#1622);
#488=VERTEX_POINT('',#1628);
#489=VERTEX_POINT('',#1630);
#490=VERTEX_POINT('',#1636);
#491=VERTEX_POINT('',#1638);
#492=VERTEX_POINT('',#1644);
#493=VERTEX_POINT('',#1646);
#494=VERTEX_POINT('',#1653);
#495=VERTEX_POINT('',#1655);
#496=VERTEX_POINT('',#1661);
#497=VERTEX_POINT('',#1663);
#498=VERTEX_POINT('',#1670);
#499=VERTEX_POINT('',#1671);
#500=VERTEX_POINT('',#1673);
#501=VERTEX_POINT('',#1675);
#502=VERTEX_POINT('',#1681);
#503=VERTEX_POINT('',#1683);
#504=VERTEX_POINT('',#1689);
#505=VERTEX_POINT('',#1691);
#506=VERTEX_POINT('',#1697);
#507=VERTEX_POINT('',#1699);
#508=VERTEX_POINT('',#1705);
#509=VERTEX_POINT('',#1707);
#510=VERTEX_POINT('',#1713);
#511=VERTEX_POINT('',#1715);
#512=VERTEX_POINT('',#1721);
#513=VERTEX_POINT('',#1723);
#514=VERTEX_POINT('',#1729);
#515=VERTEX_POINT('',#1731);
#516=VERTEX_POINT('',#1737);
#517=VERTEX_POINT('',#1739);
#518=EDGE_CURVE('',#456,#456,#398,.T.);
#519=EDGE_CURVE('',#456,#457,#332,.T.);
#520=EDGE_CURVE('',#457,#457,#399,.T.);
#521=EDGE_CURVE('',#458,#458,#400,.T.);
#522=EDGE_CURVE('',#458,#459,#333,.T.);
#523=EDGE_CURVE('',#459,#459,#401,.T.);
#524=EDGE_CURVE('',#460,#460,#402,.T.);
#525=EDGE_CURVE('',#460,#461,#334,.T.);
#526=EDGE_CURVE('',#461,#461,#403,.T.);
#527=EDGE_CURVE('',#462,#462,#404,.T.);
#528=EDGE_CURVE('',#462,#463,#335,.T.);
#529=EDGE_CURVE('',#463,#463,#405,.T.);
#530=EDGE_CURVE('',#464,#464,#406,.T.);
#531=EDGE_CURVE('',#464,#465,#336,.T.);
#532=EDGE_CURVE('',#465,#465,#407,.T.);
#533=EDGE_CURVE('',#466,#466,#408,.T.);
#534=EDGE_CURVE('',#466,#467,#337,.T.);
#535=EDGE_CURVE('',#467,#467,#409,.T.);
#536=EDGE_CURVE('',#468,#468,#410,.T.);
#537=EDGE_CURVE('',#468,#469,#338,.T.);
#538=EDGE_CURVE('',#469,#469,#411,.T.);
#539=EDGE_CURVE('',#470,#470,#412,.T.);
#540=EDGE_CURVE('',#470,#471,#339,.T.);
#541=EDGE_CURVE('',#471,#471,#413,.T.);
#542=EDGE_CURVE('',#472,#472,#414,.T.);
#543=EDGE_CURVE('',#472,#473,#340,.T.);
#544=EDGE_CURVE('',#473,#473,#415,.T.);
#545=EDGE_CURVE('',#474,#474,#416,.T.);
#546=EDGE_CURVE('',#474,#475,#341,.T.);
#547=EDGE_CURVE('',#475,#475,#417,.T.);
#548=EDGE_CURVE('',#476,#476,#418,.T.);
#549=EDGE_CURVE('',#476,#477,#342,.T.);
#550=EDGE_CURVE('',#477,#477,#419,.T.);
#551=EDGE_CURVE('',#478,#478,#420,.T.);
#552=EDGE_CURVE('',#478,#479,#343,.T.);
#553=EDGE_CURVE('',#479,#479,#421,.T.);
#554=EDGE_CURVE('',#480,#480,#422,.T.);
#555=EDGE_CURVE('',#480,#481,#344,.T.);
#556=EDGE_CURVE('',#481,#481,#423,.T.);
#557=EDGE_CURVE('',#482,#482,#424,.T.);
#558=EDGE_CURVE('',#482,#483,#345,.T.);
#559=EDGE_CURVE('',#483,#483,#425,.T.);
#560=EDGE_CURVE('',#484,#484,#426,.T.);
#561=EDGE_CURVE('',#484,#485,#346,.T.);
#562=EDGE_CURVE('',#485,#485,#427,.T.);
#563=EDGE_CURVE('',#486,#486,#428,.T.);
#564=EDGE_CURVE('',#486,#487,#347,.T.);
#565=EDGE_CURVE('',#487,#487,#429,.T.);
#566=EDGE_CURVE('',#488,#488,#430,.T.);
#567=EDGE_CURVE('',#488,#489,#348,.T.);
#568=EDGE_CURVE('',#489,#489,#431,.T.);
#569=EDGE_CURVE('',#490,#490,#432,.T.);
#570=EDGE_CURVE('',#490,#491,#349,.T.);
#571=EDGE_CURVE('',#491,#491,#433,.T.);
#572=EDGE_CURVE('',#492,#492,#434,.T.);
#573=EDGE_CURVE('',#492,#493,#350,.T.);
#574=EDGE_CURVE('',#493,#493,#435,.T.);
#575=EDGE_CURVE('',#494,#494,#436,.T.);
#576=EDGE_CURVE('',#494,#495,#351,.T.);
#577=EDGE_CURVE('',#495,#495,#437,.T.);
#578=EDGE_CURVE('',#496,#496,#438,.T.);
#579=EDGE_CURVE('',#496,#497,#352,.T.);
#580=EDGE_CURVE('',#497,#497,#439,.T.);
#581=EDGE_CURVE('',#498,#499,#353,.T.);
#582=EDGE_CURVE('',#499,#500,#354,.T.);
#583=EDGE_CURVE('',#500,#501,#355,.T.);
#584=EDGE_CURVE('',#501,#498,#356,.T.);
#585=EDGE_CURVE('',#502,#502,#440,.T.);
#586=EDGE_CURVE('',#502,#503,#357,.T.);
#587=EDGE_CURVE('',#503,#503,#441,.T.);
#588=EDGE_CURVE('',#504,#504,#442,.T.);
#589=EDGE_CURVE('',#504,#505,#358,.T.);
#590=EDGE_CURVE('',#505,#505,#443,.T.);
#591=EDGE_CURVE('',#506,#506,#444,.T.);
#592=EDGE_CURVE('',#506,#507,#359,.T.);
#593=EDGE_CURVE('',#507,#507,#445,.T.);
#594=EDGE_CURVE('',#508,#508,#446,.T.);
#595=EDGE_CURVE('',#508,#509,#360,.T.);
#596=EDGE_CURVE('',#509,#509,#447,.T.);
#597=EDGE_CURVE('',#510,#510,#448,.T.);
#598=EDGE_CURVE('',#510,#511,#361,.T.);
#599=EDGE_CURVE('',#511,#511,#449,.T.);
#600=EDGE_CURVE('',#512,#512,#450,.T.);
#601=EDGE_CURVE('',#512,#513,#362,.T.);
#602=EDGE_CURVE('',#513,#513,#451,.T.);
#603=EDGE_CURVE('',#514,#514,#452,.T.);
#604=EDGE_CURVE('',#514,#515,#363,.T.);
#605=EDGE_CURVE('',#515,#515,#453,.T.);
#606=EDGE_CURVE('',#516,#516,#454,.T.);
#607=EDGE_CURVE('',#516,#517,#364,.T.);
#608=EDGE_CURVE('',#517,#517,#455,.T.);
#609=ORIENTED_EDGE('',*,*,#518,.F.);
#610=ORIENTED_EDGE('',*,*,#519,.T.);
#611=ORIENTED_EDGE('',*,*,#520,.T.);
#612=ORIENTED_EDGE('',*,*,#519,.F.);
#613=ORIENTED_EDGE('',*,*,#521,.F.);
#614=ORIENTED_EDGE('',*,*,#522,.T.);
#615=ORIENTED_EDGE('',*,*,#523,.T.);
#616=ORIENTED_EDGE('',*,*,#522,.F.);
#617=ORIENTED_EDGE('',*,*,#521,.T.);
#618=ORIENTED_EDGE('',*,*,#518,.T.);
#619=ORIENTED_EDGE('',*,*,#523,.F.);
#620=ORIENTED_EDGE('',*,*,#520,.F.);
#621=ORIENTED_EDGE('',*,*,#524,.F.);
#622=ORIENTED_EDGE('',*,*,#525,.T.);
#623=ORIENTED_EDGE('',*,*,#526,.T.);
#624=ORIENTED_EDGE('',*,*,#525,.F.);
#625=ORIENTED_EDGE('',*,*,#527,.F.);
#626=ORIENTED_EDGE('',*,*,#528,.T.);
#627=ORIENTED_EDGE('',*,*,#529,.T.);
#628=ORIENTED_EDGE('',*,*,#528,.F.);
#629=ORIENTED_EDGE('',*,*,#527,.T.);
#630=ORIENTED_EDGE('',*,*,#524,.T.);
#631=ORIENTED_EDGE('',*,*,#529,.F.);
#632=ORIENTED_EDGE('',*,*,#526,.F.);
#633=ORIENTED_EDGE('',*,*,#530,.F.);
#634=ORIENTED_EDGE('',*,*,#531,.T.);
#635=ORIENTED_EDGE('',*,*,#532,.T.);
#636=ORIENTED_EDGE('',*,*,#531,.F.);
#637=ORIENTED_EDGE('',*,*,#533,.F.);
#638=ORIENTED_EDGE('',*,*,#534,.T.);
#639=ORIENTED_EDGE('',*,*,#535,.T.);
#640=ORIENTED_EDGE('',*,*,#534,.F.);
#641=ORIENTED_EDGE('',*,*,#533,.T.);
#642=ORIENTED_EDGE('',*,*,#530,.T.);
#643=ORIENTED_EDGE('',*,*,#535,.F.);
#644=ORIENTED_EDGE('',*,*,#532,.F.);
#645=ORIENTED_EDGE('',*,*,#536,.F.);
#646=ORIENTED_EDGE('',*,*,#537,.T.);
#647=ORIENTED_EDGE('',*,*,#538,.F.);
#648=ORIENTED_EDGE('',*,*,#537,.F.);
#649=ORIENTED_EDGE('',*,*,#539,.T.);
#650=ORIENTED_EDGE('',*,*,#540,.T.);
#651=ORIENTED_EDGE('',*,*,#541,.F.);
#652=ORIENTED_EDGE('',*,*,#540,.F.);
#653=ORIENTED_EDGE('',*,*,#539,.F.);
#654=ORIENTED_EDGE('',*,*,#538,.T.);
#655=ORIENTED_EDGE('',*,*,#542,.F.);
#656=ORIENTED_EDGE('',*,*,#543,.T.);
#657=ORIENTED_EDGE('',*,*,#544,.F.);
#658=ORIENTED_EDGE('',*,*,#543,.F.);
#659=ORIENTED_EDGE('',*,*,#544,.T.);
#660=ORIENTED_EDGE('',*,*,#536,.T.);
#661=ORIENTED_EDGE('',*,*,#542,.T.);
#662=ORIENTED_EDGE('',*,*,#541,.T.);
#663=ORIENTED_EDGE('',*,*,#545,.F.);
#664=ORIENTED_EDGE('',*,*,#546,.T.);
#665=ORIENTED_EDGE('',*,*,#547,.T.);
#666=ORIENTED_EDGE('',*,*,#546,.F.);
#667=ORIENTED_EDGE('',*,*,#545,.T.);
#668=ORIENTED_EDGE('',*,*,#547,.F.);
#669=ORIENTED_EDGE('',*,*,#548,.F.);
#670=ORIENTED_EDGE('',*,*,#549,.T.);
#671=ORIENTED_EDGE('',*,*,#550,.T.);
#672=ORIENTED_EDGE('',*,*,#549,.F.);
#673=ORIENTED_EDGE('',*,*,#548,.T.);
#674=ORIENTED_EDGE('',*,*,#550,.F.);
#675=ORIENTED_EDGE('',*,*,#551,.F.);
#676=ORIENTED_EDGE('',*,*,#552,.T.);
#677=ORIENTED_EDGE('',*,*,#553,.T.);
#678=ORIENTED_EDGE('',*,*,#552,.F.);
#679=ORIENTED_EDGE('',*,*,#551,.T.);
#680=ORIENTED_EDGE('',*,*,#553,.F.);
#681=ORIENTED_EDGE('',*,*,#554,.F.);
#682=ORIENTED_EDGE('',*,*,#555,.T.);
#683=ORIENTED_EDGE('',*,*,#556,.T.);
#684=ORIENTED_EDGE('',*,*,#555,.F.);
#685=ORIENTED_EDGE('',*,*,#554,.T.);
#686=ORIENTED_EDGE('',*,*,#556,.F.);
#687=ORIENTED_EDGE('',*,*,#557,.F.);
#688=ORIENTED_EDGE('',*,*,#558,.T.);
#689=ORIENTED_EDGE('',*,*,#559,.T.);
#690=ORIENTED_EDGE('',*,*,#558,.F.);
#691=ORIENTED_EDGE('',*,*,#557,.T.);
#692=ORIENTED_EDGE('',*,*,#559,.F.);
#693=ORIENTED_EDGE('',*,*,#560,.F.);
#694=ORIENTED_EDGE('',*,*,#561,.T.);
#695=ORIENTED_EDGE('',*,*,#562,.T.);
#696=ORIENTED_EDGE('',*,*,#561,.F.);
#697=ORIENTED_EDGE('',*,*,#560,.T.);
#698=ORIENTED_EDGE('',*,*,#562,.F.);
#699=ORIENTED_EDGE('',*,*,#563,.F.);
#700=ORIENTED_EDGE('',*,*,#564,.T.);
#701=ORIENTED_EDGE('',*,*,#565,.T.);
#702=ORIENTED_EDGE('',*,*,#564,.F.);
#703=ORIENTED_EDGE('',*,*,#563,.T.);
#704=ORIENTED_EDGE('',*,*,#565,.F.);
#705=ORIENTED_EDGE('',*,*,#566,.F.);
#706=ORIENTED_EDGE('',*,*,#567,.T.);
#707=ORIENTED_EDGE('',*,*,#568,.T.);
#708=ORIENTED_EDGE('',*,*,#567,.F.);
#709=ORIENTED_EDGE('',*,*,#566,.T.);
#710=ORIENTED_EDGE('',*,*,#568,.F.);
#711=ORIENTED_EDGE('',*,*,#569,.F.);
#712=ORIENTED_EDGE('',*,*,#570,.T.);
#713=ORIENTED_EDGE('',*,*,#571,.T.);
#714=ORIENTED_EDGE('',*,*,#570,.F.);
#715=ORIENTED_EDGE('',*,*,#569,.T.);
#716=ORIENTED_EDGE('',*,*,#571,.F.);
#717=ORIENTED_EDGE('',*,*,#572,.F.);
#718=ORIENTED_EDGE('',*,*,#573,.T.);
#719=ORIENTED_EDGE('',*,*,#574,.T.);
#720=ORIENTED_EDGE('',*,*,#573,.F.);
#721=ORIENTED_EDGE('',*,*,#572,.T.);
#722=ORIENTED_EDGE('',*,*,#574,.F.);
#723=ORIENTED_EDGE('',*,*,#575,.F.);
#724=ORIENTED_EDGE('',*,*,#576,.T.);
#725=ORIENTED_EDGE('',*,*,#577,.T.);
#726=ORIENTED_EDGE('',*,*,#576,.F.);
#727=ORIENTED_EDGE('',*,*,#575,.T.);
#728=ORIENTED_EDGE('',*,*,#577,.F.);
#729=ORIENTED_EDGE('',*,*,#578,.F.);
#730=ORIENTED_EDGE('',*,*,#579,.T.);
#731=ORIENTED_EDGE('',*,*,#580,.T.);
#732=ORIENTED_EDGE('',*,*,#579,.F.);
#733=ORIENTED_EDGE('',*,*,#578,.T.);
#734=ORIENTED_EDGE('',*,*,#580,.F.);
#735=ORIENTED_EDGE('',*,*,#581,.T.);
#736=ORIENTED_EDGE('',*,*,#582,.T.);
#737=ORIENTED_EDGE('',*,*,#583,.T.);
#738=ORIENTED_EDGE('',*,*,#584,.T.);
#739=ORIENTED_EDGE('',*,*,#585,.F.);
#740=ORIENTED_EDGE('',*,*,#586,.T.);
#741=ORIENTED_EDGE('',*,*,#587,.T.);
#742=ORIENTED_EDGE('',*,*,#586,.F.);
#743=ORIENTED_EDGE('',*,*,#585,.T.);
#744=ORIENTED_EDGE('',*,*,#587,.F.);
#745=ORIENTED_EDGE('',*,*,#588,.F.);
#746=ORIENTED_EDGE('',*,*,#589,.T.);
#747=ORIENTED_EDGE('',*,*,#590,.T.);
#748=ORIENTED_EDGE('',*,*,#589,.F.);
#749=ORIENTED_EDGE('',*,*,#588,.T.);
#750=ORIENTED_EDGE('',*,*,#590,.F.);
#751=ORIENTED_EDGE('',*,*,#591,.F.);
#752=ORIENTED_EDGE('',*,*,#592,.T.);
#753=ORIENTED_EDGE('',*,*,#593,.T.);
#754=ORIENTED_EDGE('',*,*,#592,.F.);
#755=ORIENTED_EDGE('',*,*,#591,.T.);
#756=ORIENTED_EDGE('',*,*,#593,.F.);
#757=ORIENTED_EDGE('',*,*,#594,.F.);
#758=ORIENTED_EDGE('',*,*,#595,.T.);
#759=ORIENTED_EDGE('',*,*,#596,.T.);
#760=ORIENTED_EDGE('',*,*,#595,.F.);
#761=ORIENTED_EDGE('',*,*,#594,.T.);
#762=ORIENTED_EDGE('',*,*,#596,.F.);
#763=ORIENTED_EDGE('',*,*,#597,.F.);
#764=ORIENTED_EDGE('',*,*,#598,.T.);
#765=ORIENTED_EDGE('',*,*,#599,.T.);
#766=ORIENTED_EDGE('',*,*,#598,.F.);
#767=ORIENTED_EDGE('',*,*,#597,.T.);
#768=ORIENTED_EDGE('',*,*,#599,.F.);
#769=ORIENTED_EDGE('',*,*,#600,.F.);
#770=ORIENTED_EDGE('',*,*,#601,.T.);
#771=ORIENTED_EDGE('',*,*,#602,.T.);
#772=ORIENTED_EDGE('',*,*,#601,.F.);
#773=ORIENTED_EDGE('',*,*,#600,.T.);
#774=ORIENTED_EDGE('',*,*,#602,.F.);
#775=ORIENTED_EDGE('',*,*,#603,.F.);
#776=ORIENTED_EDGE('',*,*,#604,.T.);
#777=ORIENTED_EDGE('',*,*,#605,.T.);
#778=ORIENTED_EDGE('',*,*,#604,.F.);
#779=ORIENTED_EDGE('',*,*,#603,.T.);
#780=ORIENTED_EDGE('',*,*,#605,.F.);
#781=ORIENTED_EDGE('',*,*,#606,.F.);
#782=ORIENTED_EDGE('',*,*,#607,.T.);
#783=ORIENTED_EDGE('',*,*,#608,.T.);
#784=ORIENTED_EDGE('',*,*,#607,.F.);
#785=ORIENTED_EDGE('',*,*,#606,.T.);
#786=ORIENTED_EDGE('',*,*,#608,.F.);
#787=CYLINDRICAL_SURFACE('',#1010,1.45);
#788=CYLINDRICAL_SURFACE('',#1013,1.6);
#789=CYLINDRICAL_SURFACE('',#1018,1.13);
#790=CYLINDRICAL_SURFACE('',#1021,1.25);
#791=CYLINDRICAL_SURFACE('',#1026,0.85);
#792=CYLINDRICAL_SURFACE('',#1029,0.95);
#793=CYLINDRICAL_SURFACE('',#1035,1.625);
#794=CYLINDRICAL_SURFACE('',#1038,4.5);
#795=CYLINDRICAL_SURFACE('',#1042,5.3);
#796=CYLINDRICAL_SURFACE('',#1048,2.2);
#797=CYLINDRICAL_SURFACE('',#1053,0.4);
#798=CYLINDRICAL_SURFACE('',#1058,0.4);
#799=CYLINDRICAL_SURFACE('',#1063,0.4);
#800=CYLINDRICAL_SURFACE('',#1068,0.4);
#801=CYLINDRICAL_SURFACE('',#1074,1.75);
#802=CYLINDRICAL_SURFACE('',#1079,0.3);
#803=CYLINDRICAL_SURFACE('',#1084,0.3);
#804=CYLINDRICAL_SURFACE('',#1089,0.3);
#805=CYLINDRICAL_SURFACE('',#1094,0.3);
#806=CYLINDRICAL_SURFACE('',#1100,0.3);
#807=CYLINDRICAL_SURFACE('',#1105,0.15);
#808=CYLINDRICAL_SURFACE('',#1114,0.1);
#809=CYLINDRICAL_SURFACE('',#1119,0.1);
#810=CYLINDRICAL_SURFACE('',#1124,0.1);
#811=CYLINDRICAL_SURFACE('',#1129,0.1);
#812=CYLINDRICAL_SURFACE('',#1134,0.1);
#813=CYLINDRICAL_SURFACE('',#1139,0.1);
#814=CYLINDRICAL_SURFACE('',#1144,0.1);
#815=CYLINDRICAL_SURFACE('',#1149,0.1);
#816=ADVANCED_FACE('',(#165),#787,.F.);
#817=ADVANCED_FACE('',(#166),#788,.T.);
#818=ADVANCED_FACE('',(#167,#106),#115,.T.);
#819=ADVANCED_FACE('',(#168,#107),#116,.F.);
#820=ADVANCED_FACE('',(#169),#789,.F.);
#821=ADVANCED_FACE('',(#170),#790,.T.);
#822=ADVANCED_FACE('',(#171,#108),#117,.T.);
#823=ADVANCED_FACE('',(#172,#109),#118,.F.);
#824=ADVANCED_FACE('',(#173),#791,.F.);
#825=ADVANCED_FACE('',(#174),#792,.T.);
#826=ADVANCED_FACE('',(#175,#110),#119,.T.);
#827=ADVANCED_FACE('',(#176,#111),#120,.F.);
#828=ADVANCED_FACE('',(#177),#793,.F.);
#829=ADVANCED_FACE('',(#178),#794,.F.);
#830=ADVANCED_FACE('',(#179,#112),#121,.F.);
#831=ADVANCED_FACE('',(#180),#795,.T.);
#832=ADVANCED_FACE('',(#181,#113),#122,.T.);
#833=ADVANCED_FACE('',(#182,#114),#123,.F.);
#834=ADVANCED_FACE('',(#183),#796,.T.);
#835=ADVANCED_FACE('',(#184),#124,.T.);
#836=ADVANCED_FACE('',(#185),#125,.F.);
#837=ADVANCED_FACE('',(#186),#797,.T.);
#838=ADVANCED_FACE('',(#187),#126,.T.);
#839=ADVANCED_FACE('',(#188),#127,.F.);
#840=ADVANCED_FACE('',(#189),#798,.T.);
#841=ADVANCED_FACE('',(#190),#128,.T.);
#842=ADVANCED_FACE('',(#191),#129,.F.);
#843=ADVANCED_FACE('',(#192),#799,.T.);
#844=ADVANCED_FACE('',(#193),#130,.T.);
#845=ADVANCED_FACE('',(#194),#131,.F.);
#846=ADVANCED_FACE('',(#195),#800,.T.);
#847=ADVANCED_FACE('',(#196),#132,.T.);
#848=ADVANCED_FACE('',(#197),#133,.F.);
#849=ADVANCED_FACE('',(#198),#801,.T.);
#850=ADVANCED_FACE('',(#199),#134,.T.);
#851=ADVANCED_FACE('',(#200),#135,.F.);
#852=ADVANCED_FACE('',(#201),#802,.T.);
#853=ADVANCED_FACE('',(#202),#136,.T.);
#854=ADVANCED_FACE('',(#203),#137,.F.);
#855=ADVANCED_FACE('',(#204),#803,.T.);
#856=ADVANCED_FACE('',(#205),#138,.T.);
#857=ADVANCED_FACE('',(#206),#139,.F.);
#858=ADVANCED_FACE('',(#207),#804,.T.);
#859=ADVANCED_FACE('',(#208),#140,.T.);
#860=ADVANCED_FACE('',(#209),#141,.F.);
#861=ADVANCED_FACE('',(#210),#805,.T.);
#862=ADVANCED_FACE('',(#211),#142,.T.);
#863=ADVANCED_FACE('',(#212),#143,.F.);
#864=ADVANCED_FACE('',(#213),#806,.T.);
#865=ADVANCED_FACE('',(#214),#144,.T.);
#866=ADVANCED_FACE('',(#215),#145,.F.);
#867=ADVANCED_FACE('',(#216),#807,.T.);
#868=ADVANCED_FACE('',(#217),#146,.T.);
#869=ADVANCED_FACE('',(#218),#147,.F.);
#870=ADVANCED_FACE('',(#219),#148,.T.);
#871=ADVANCED_FACE('',(#220),#808,.T.);
#872=ADVANCED_FACE('',(#221),#149,.T.);
#873=ADVANCED_FACE('',(#222),#150,.F.);
#874=ADVANCED_FACE('',(#223),#809,.T.);
#875=ADVANCED_FACE('',(#224),#151,.T.);
#876=ADVANCED_FACE('',(#225),#152,.F.);
#877=ADVANCED_FACE('',(#226),#810,.T.);
#878=ADVANCED_FACE('',(#227),#153,.T.);
#879=ADVANCED_FACE('',(#228),#154,.F.);
#880=ADVANCED_FACE('',(#229),#811,.T.);
#881=ADVANCED_FACE('',(#230),#155,.T.);
#882=ADVANCED_FACE('',(#231),#156,.F.);
#883=ADVANCED_FACE('',(#232),#812,.T.);
#884=ADVANCED_FACE('',(#233),#157,.T.);
#885=ADVANCED_FACE('',(#234),#158,.F.);
#886=ADVANCED_FACE('',(#235),#813,.T.);
#887=ADVANCED_FACE('',(#236),#159,.T.);
#888=ADVANCED_FACE('',(#237),#160,.F.);
#889=ADVANCED_FACE('',(#238),#814,.T.);
#890=ADVANCED_FACE('',(#239),#161,.T.);
#891=ADVANCED_FACE('',(#240),#162,.F.);
#892=ADVANCED_FACE('',(#241),#815,.T.);
#893=ADVANCED_FACE('',(#242),#163,.T.);
#894=ADVANCED_FACE('',(#243),#164,.F.);
#895=CLOSED_SHELL('',(#816,#817,#818,#819));
#896=CLOSED_SHELL('',(#820,#821,#822,#823));
#897=CLOSED_SHELL('',(#824,#825,#826,#827));
#898=CLOSED_SHELL('',(#828,#829,#830,#831,#832,#833));
#899=CLOSED_SHELL('',(#834,#835,#836));
#900=CLOSED_SHELL('',(#837,#838,#839));
#901=CLOSED_SHELL('',(#840,#841,#842));
#902=CLOSED_SHELL('',(#843,#844,#845));
#903=CLOSED_SHELL('',(#846,#847,#848));
#904=CLOSED_SHELL('',(#849,#850,#851));
#905=CLOSED_SHELL('',(#852,#853,#854));
#906=CLOSED_SHELL('',(#855,#856,#857));
#907=CLOSED_SHELL('',(#858,#859,#860));
#908=CLOSED_SHELL('',(#861,#862,#863));
#909=CLOSED_SHELL('',(#864,#865,#866));
#910=CLOSED_SHELL('',(#867,#868,#869));
#911=CLOSED_SHELL('',(#871,#872,#873));
#912=CLOSED_SHELL('',(#874,#875,#876));
#913=CLOSED_SHELL('',(#877,#878,#879));
#914=CLOSED_SHELL('',(#880,#881,#882));
#915=CLOSED_SHELL('',(#883,#884,#885));
#916=CLOSED_SHELL('',(#886,#887,#888));
#917=CLOSED_SHELL('',(#889,#890,#891));
#918=CLOSED_SHELL('',(#892,#893,#894));
#919=DERIVED_UNIT_ELEMENT(#935,1.);
#920=DERIVED_UNIT_ELEMENT(#1773,-3.);
#921=DERIVED_UNIT_ELEMENT(#935,1.);
#922=DERIVED_UNIT_ELEMENT(#1773,-3.);
#923=DERIVED_UNIT_ELEMENT(#935,1.);
#924=DERIVED_UNIT_ELEMENT(#1773,-3.);
#925=DERIVED_UNIT_ELEMENT(#935,1.);
#926=DERIVED_UNIT_ELEMENT(#1773,-3.);
#927=DERIVED_UNIT_ELEMENT(#935,1.);
#928=DERIVED_UNIT_ELEMENT(#1773,-3.);
#929=DERIVED_UNIT_ELEMENT(#935,1.);
#930=DERIVED_UNIT_ELEMENT(#1773,-3.);
#931=DERIVED_UNIT_ELEMENT(#935,1.);
#932=DERIVED_UNIT_ELEMENT(#1773,-3.);
#933=DERIVED_UNIT_ELEMENT(#935,1.);
#934=DERIVED_UNIT_ELEMENT(#1773,-3.);
#935=(
MASS_UNIT()
NAMED_UNIT(*)
SI_UNIT(.KILO.,.GRAM.)
);
#936=DERIVED_UNIT((#919,#920));
#937=DERIVED_UNIT((#921,#922));
#938=DERIVED_UNIT((#923,#924));
#939=DERIVED_UNIT((#925,#926));
#940=DERIVED_UNIT((#927,#928));
#941=DERIVED_UNIT((#929,#930));
#942=DERIVED_UNIT((#931,#932));
#943=DERIVED_UNIT((#933,#934));
#944=MEASURE_REPRESENTATION_ITEM('density measure',
POSITIVE_RATIO_MEASURE(7850.),#936);
#945=MEASURE_REPRESENTATION_ITEM('density measure',
POSITIVE_RATIO_MEASURE(7850.),#937);
#946=MEASURE_REPRESENTATION_ITEM('density measure',
POSITIVE_RATIO_MEASURE(7850.),#938);
#947=MEASURE_REPRESENTATION_ITEM('density measure',
POSITIVE_RATIO_MEASURE(7850.),#939);
#948=MEASURE_REPRESENTATION_ITEM('density measure',
POSITIVE_RATIO_MEASURE(7850.),#940);
#949=MEASURE_REPRESENTATION_ITEM('density measure',
POSITIVE_RATIO_MEASURE(7850.),#941);
#950=MEASURE_REPRESENTATION_ITEM('density measure',
POSITIVE_RATIO_MEASURE(7850.),#942);
#951=MEASURE_REPRESENTATION_ITEM('density measure',
POSITIVE_RATIO_MEASURE(7850.),#943);
#952=PROPERTY_DEFINITION_REPRESENTATION(#992,#968);
#953=PROPERTY_DEFINITION_REPRESENTATION(#993,#969);
#954=PROPERTY_DEFINITION_REPRESENTATION(#994,#970);
#955=PROPERTY_DEFINITION_REPRESENTATION(#995,#971);
#956=PROPERTY_DEFINITION_REPRESENTATION(#996,#972);
#957=PROPERTY_DEFINITION_REPRESENTATION(#997,#973);
#958=PROPERTY_DEFINITION_REPRESENTATION(#998,#974);
#959=PROPERTY_DEFINITION_REPRESENTATION(#999,#975);
#960=PROPERTY_DEFINITION_REPRESENTATION(#1000,#976);
#961=PROPERTY_DEFINITION_REPRESENTATION(#1001,#977);
#962=PROPERTY_DEFINITION_REPRESENTATION(#1002,#978);
#963=PROPERTY_DEFINITION_REPRESENTATION(#1003,#979);
#964=PROPERTY_DEFINITION_REPRESENTATION(#1004,#980);
#965=PROPERTY_DEFINITION_REPRESENTATION(#1005,#981);
#966=PROPERTY_DEFINITION_REPRESENTATION(#1006,#982);
#967=PROPERTY_DEFINITION_REPRESENTATION(#1007,#983);
#968=REPRESENTATION('material name',(#984),#1763);
#969=REPRESENTATION('density',(#944),#1763);
#970=REPRESENTATION('material name',(#985),#1764);
#971=REPRESENTATION('density',(#945),#1764);
#972=REPRESENTATION('material name',(#986),#1765);
#973=REPRESENTATION('density',(#946),#1765);
#974=REPRESENTATION('material name',(#987),#1766);
#975=REPRESENTATION('density',(#947),#1766);
#976=REPRESENTATION('material name',(#988),#1767);
#977=REPRESENTATION('density',(#948),#1767);
#978=REPRESENTATION('material name',(#989),#1768);
#979=REPRESENTATION('density',(#949),#1768);
#980=REPRESENTATION('material name',(#990),#1769);
#981=REPRESENTATION('density',(#950),#1769);
#982=REPRESENTATION('material name',(#991),#1770);
#983=REPRESENTATION('density',(#951),#1770);
#984=DESCRIPTIVE_REPRESENTATION_ITEM('\X\C7elik','\X\C7elik');
#985=DESCRIPTIVE_REPRESENTATION_ITEM('\X\C7elik','\X\C7elik');
#986=DESCRIPTIVE_REPRESENTATION_ITEM('\X\C7elik','\X\C7elik');
#987=DESCRIPTIVE_REPRESENTATION_ITEM('\X\C7elik','\X\C7elik');
#988=DESCRIPTIVE_REPRESENTATION_ITEM('\X\C7elik','\X\C7elik');
#989=DESCRIPTIVE_REPRESENTATION_ITEM('\X\C7elik','\X\C7elik');
#990=DESCRIPTIVE_REPRESENTATION_ITEM('\X\C7elik','\X\C7elik');
#991=DESCRIPTIVE_REPRESENTATION_ITEM('\X\C7elik','\X\C7elik');
#992=PROPERTY_DEFINITION('material property','material name',#1813);
#993=PROPERTY_DEFINITION('material property','density of part',#1813);
#994=PROPERTY_DEFINITION('material property','material name',#1814);
#995=PROPERTY_DEFINITION('material property','density of part',#1814);
#996=PROPERTY_DEFINITION('material property','material name',#1815);
#997=PROPERTY_DEFINITION('material property','density of part',#1815);
#998=PROPERTY_DEFINITION('material property','material name',#1816);
#999=PROPERTY_DEFINITION('material property','density of part',#1816);
#1000=PROPERTY_DEFINITION('material property','material name',#1817);
#1001=PROPERTY_DEFINITION('material property','density of part',#1817);
#1002=PROPERTY_DEFINITION('material property','material name',#1818);
#1003=PROPERTY_DEFINITION('material property','density of part',#1818);
#1004=PROPERTY_DEFINITION('material property','material name',#1819);
#1005=PROPERTY_DEFINITION('material property','density of part',#1819);
#1006=PROPERTY_DEFINITION('material property','material name',#1820);
#1007=PROPERTY_DEFINITION('material property','density of part',#1820);
#1008=AXIS2_PLACEMENT_3D('',#1503,#1162,#1163);
#1009=AXIS2_PLACEMENT_3D('',#1504,#1164,#1165);
#1010=AXIS2_PLACEMENT_3D('',#1505,#1166,#1167);
#1011=AXIS2_PLACEMENT_3D('',#1507,#1168,#1169);
#1012=AXIS2_PLACEMENT_3D('',#1510,#1171,#1172);
#1013=AXIS2_PLACEMENT_3D('',#1511,#1173,#1174);
#1014=AXIS2_PLACEMENT_3D('',#1513,#1175,#1176);
#1015=AXIS2_PLACEMENT_3D('',#1516,#1178,#1179);
#1016=AXIS2_PLACEMENT_3D('',#1517,#1180,#1181);
#1017=AXIS2_PLACEMENT_3D('',#1518,#1182,#1183);
#1018=AXIS2_PLACEMENT_3D('',#1519,#1184,#1185);
#1019=AXIS2_PLACEMENT_3D('',#1521,#1186,#1187);
#1020=AXIS2_PLACEMENT_3D('',#1524,#1189,#1190);
#1021=AXIS2_PLACEMENT_3D('',#1525,#1191,#1192);
#1022=AXIS2_PLACEMENT_3D('',#1527,#1193,#1194);
#1023=AXIS2_PLACEMENT_3D('',#1530,#1196,#1197);
#1024=AXIS2_PLACEMENT_3D('',#1531,#1198,#1199);
#1025=AXIS2_PLACEMENT_3D('',#1532,#1200,#1201);
#1026=AXIS2_PLACEMENT_3D('',#1533,#1202,#1203);
#1027=AXIS2_PLACEMENT_3D('',#1535,#1204,#1205);
#1028=AXIS2_PLACEMENT_3D('',#1538,#1207,#1208);
#1029=AXIS2_PLACEMENT_3D('',#1539,#1209,#1210);
#1030=AXIS2_PLACEMENT_3D('',#1541,#1211,#1212);
#1031=AXIS2_PLACEMENT_3D('',#1544,#1214,#1215);
#1032=AXIS2_PLACEMENT_3D('',#1545,#1216,#1217);
#1033=AXIS2_PLACEMENT_3D('',#1546,#1218,#1219);
#1034=AXIS2_PLACEMENT_3D('',#1547,#1220,#1221);
#1035=AXIS2_PLACEMENT_3D('',#1548,#1222,#1223);
#1036=AXIS2_PLACEMENT_3D('',#1550,#1224,#1225);
#1037=AXIS2_PLACEMENT_3D('',#1553,#1227,#1228);
#1038=AXIS2_PLACEMENT_3D('',#1554,#1229,#1230);
#1039=AXIS2_PLACEMENT_3D('',#1556,#1231,#1232);
#1040=AXIS2_PLACEMENT_3D('',#1559,#1234,#1235);
#1041=AXIS2_PLACEMENT_3D('',#1560,#1236,#1237);
#1042=AXIS2_PLACEMENT_3D('',#1561,#1238,#1239);
#1043=AXIS2_PLACEMENT_3D('',#1563,#1240,#1241);
#1044=AXIS2_PLACEMENT_3D('',#1566,#1243,#1244);
#1045=AXIS2_PLACEMENT_3D('',#1567,#1245,#1246);
#1046=AXIS2_PLACEMENT_3D('',#1568,#1247,#1248);
#1047=AXIS2_PLACEMENT_3D('',#1569,#1249,#1250);
#1048=AXIS2_PLACEMENT_3D('',#1570,#1251,#1252);
#1049=AXIS2_PLACEMENT_3D('',#1572,#1253,#1254);
#1050=AXIS2_PLACEMENT_3D('',#1575,#1256,#1257);
#1051=AXIS2_PLACEMENT_3D('',#1576,#1258,#1259);
#1052=AXIS2_PLACEMENT_3D('',#1577,#1260,#1261);
#1053=AXIS2_PLACEMENT_3D('',#1578,#1262,#1263);
#1054=AXIS2_PLACEMENT_3D('',#1580,#1264,#1265);
#1055=AXIS2_PLACEMENT_3D('',#1583,#1267,#1268);
#1056=AXIS2_PLACEMENT_3D('',#1584,#1269,#1270);
#1057=AXIS2_PLACEMENT_3D('',#1585,#1271,#1272);
#1058=AXIS2_PLACEMENT_3D('',#1586,#1273,#1274);
#1059=AXIS2_PLACEMENT_3D('',#1588,#1275,#1276);
#1060=AXIS2_PLACEMENT_3D('',#1591,#1278,#1279);
#1061=AXIS2_PLACEMENT_3D('',#1592,#1280,#1281);
#1062=AXIS2_PLACEMENT_3D('',#1593,#1282,#1283);
#1063=AXIS2_PLACEMENT_3D('',#1594,#1284,#1285);
#1064=AXIS2_PLACEMENT_3D('',#1596,#1286,#1287);
#1065=AXIS2_PLACEMENT_3D('',#1599,#1289,#1290);
#1066=AXIS2_PLACEMENT_3D('',#1600,#1291,#1292);
#1067=AXIS2_PLACEMENT_3D('',#1601,#1293,#1294);
#1068=AXIS2_PLACEMENT_3D('',#1602,#1295,#1296);
#1069=AXIS2_PLACEMENT_3D('',#1604,#1297,#1298);
#1070=AXIS2_PLACEMENT_3D('',#1607,#1300,#1301);
#1071=AXIS2_PLACEMENT_3D('',#1608,#1302,#1303);
#1072=AXIS2_PLACEMENT_3D('',#1609,#1304,#1305);
#1073=AXIS2_PLACEMENT_3D('',#1610,#1306,#1307);
#1074=AXIS2_PLACEMENT_3D('',#1611,#1308,#1309);
#1075=AXIS2_PLACEMENT_3D('',#1613,#1310,#1311);
#1076=AXIS2_PLACEMENT_3D('',#1616,#1313,#1314);
#1077=AXIS2_PLACEMENT_3D('',#1617,#1315,#1316);
#1078=AXIS2_PLACEMENT_3D('',#1618,#1317,#1318);
#1079=AXIS2_PLACEMENT_3D('',#1619,#1319,#1320);
#1080=AXIS2_PLACEMENT_3D('',#1621,#1321,#1322);
#1081=AXIS2_PLACEMENT_3D('',#1624,#1324,#1325);
#1082=AXIS2_PLACEMENT_3D('',#1625,#1326,#1327);
#1083=AXIS2_PLACEMENT_3D('',#1626,#1328,#1329);
#1084=AXIS2_PLACEMENT_3D('',#1627,#1330,#1331);
#1085=AXIS2_PLACEMENT_3D('',#1629,#1332,#1333);
#1086=AXIS2_PLACEMENT_3D('',#1632,#1335,#1336);
#1087=AXIS2_PLACEMENT_3D('',#1633,#1337,#1338);
#1088=AXIS2_PLACEMENT_3D('',#1634,#1339,#1340);
#1089=AXIS2_PLACEMENT_3D('',#1635,#1341,#1342);
#1090=AXIS2_PLACEMENT_3D('',#1637,#1343,#1344);
#1091=AXIS2_PLACEMENT_3D('',#1640,#1346,#1347);
#1092=AXIS2_PLACEMENT_3D('',#1641,#1348,#1349);
#1093=AXIS2_PLACEMENT_3D('',#1642,#1350,#1351);
#1094=AXIS2_PLACEMENT_3D('',#1643,#1352,#1353);
#1095=AXIS2_PLACEMENT_3D('',#1645,#1354,#1355);
#1096=AXIS2_PLACEMENT_3D('',#1648,#1357,#1358);
#1097=AXIS2_PLACEMENT_3D('',#1649,#1359,#1360);
#1098=AXIS2_PLACEMENT_3D('',#1650,#1361,#1362);
#1099=AXIS2_PLACEMENT_3D('',#1651,#1363,#1364);
#1100=AXIS2_PLACEMENT_3D('',#1652,#1365,#1366);
#1101=AXIS2_PLACEMENT_3D('',#1654,#1367,#1368);
#1102=AXIS2_PLACEMENT_3D('',#1657,#1370,#1371);
#1103=AXIS2_PLACEMENT_3D('',#1658,#1372,#1373);
#1104=AXIS2_PLACEMENT_3D('',#1659,#1374,#1375);
#1105=AXIS2_PLACEMENT_3D('',#1660,#1376,#1377);
#1106=AXIS2_PLACEMENT_3D('',#1662,#1378,#1379);
#1107=AXIS2_PLACEMENT_3D('',#1665,#1381,#1382);
#1108=AXIS2_PLACEMENT_3D('',#1666,#1383,#1384);
#1109=AXIS2_PLACEMENT_3D('',#1667,#1385,#1386);
#1110=AXIS2_PLACEMENT_3D('',#1668,#1387,#1388);
#1111=AXIS2_PLACEMENT_3D('',#1669,#1389,#1390);
#1112=AXIS2_PLACEMENT_3D('',#1678,#1395,#1396);
#1113=AXIS2_PLACEMENT_3D('',#1679,#1397,#1398);
#1114=AXIS2_PLACEMENT_3D('',#1680,#1399,#1400);
#1115=AXIS2_PLACEMENT_3D('',#1682,#1401,#1402);
#1116=AXIS2_PLACEMENT_3D('',#1685,#1404,#1405);
#1117=AXIS2_PLACEMENT_3D('',#1686,#1406,#1407);
#1118=AXIS2_PLACEMENT_3D('',#1687,#1408,#1409);
#1119=AXIS2_PLACEMENT_3D('',#1688,#1410,#1411);
#1120=AXIS2_PLACEMENT_3D('',#1690,#1412,#1413);
#1121=AXIS2_PLACEMENT_3D('',#1693,#1415,#1416);
#1122=AXIS2_PLACEMENT_3D('',#1694,#1417,#1418);
#1123=AXIS2_PLACEMENT_3D('',#1695,#1419,#1420);
#1124=AXIS2_PLACEMENT_3D('',#1696,#1421,#1422);
#1125=AXIS2_PLACEMENT_3D('',#1698,#1423,#1424);
#1126=AXIS2_PLACEMENT_3D('',#1701,#1426,#1427);
#1127=AXIS2_PLACEMENT_3D('',#1702,#1428,#1429);
#1128=AXIS2_PLACEMENT_3D('',#1703,#1430,#1431);
#1129=AXIS2_PLACEMENT_3D('',#1704,#1432,#1433);
#1130=AXIS2_PLACEMENT_3D('',#1706,#1434,#1435);
#1131=AXIS2_PLACEMENT_3D('',#1709,#1437,#1438);
#1132=AXIS2_PLACEMENT_3D('',#1710,#1439,#1440);
#1133=AXIS2_PLACEMENT_3D('',#1711,#1441,#1442);
#1134=AXIS2_PLACEMENT_3D('',#1712,#1443,#1444);
#1135=AXIS2_PLACEMENT_3D('',#1714,#1445,#1446);
#1136=AXIS2_PLACEMENT_3D('',#1717,#1448,#1449);
#1137=AXIS2_PLACEMENT_3D('',#1718,#1450,#1451);
#1138=AXIS2_PLACEMENT_3D('',#1719,#1452,#1453);
#1139=AXIS2_PLACEMENT_3D('',#1720,#1454,#1455);
#1140=AXIS2_PLACEMENT_3D('',#1722,#1456,#1457);
#1141=AXIS2_PLACEMENT_3D('',#1725,#1459,#1460);
#1142=AXIS2_PLACEMENT_3D('',#1726,#1461,#1462);
#1143=AXIS2_PLACEMENT_3D('',#1727,#1463,#1464);
#1144=AXIS2_PLACEMENT_3D('',#1728,#1465,#1466);
#1145=AXIS2_PLACEMENT_3D('',#1730,#1467,#1468);
#1146=AXIS2_PLACEMENT_3D('',#1733,#1470,#1471);
#1147=AXIS2_PLACEMENT_3D('',#1734,#1472,#1473);
#1148=AXIS2_PLACEMENT_3D('',#1735,#1474,#1475);
#1149=AXIS2_PLACEMENT_3D('',#1736,#1476,#1477);
#1150=AXIS2_PLACEMENT_3D('',#1738,#1478,#1479);
#1151=AXIS2_PLACEMENT_3D('',#1741,#1481,#1482);
#1152=AXIS2_PLACEMENT_3D('',#1742,#1483,#1484);
#1153=AXIS2_PLACEMENT_3D('',#1743,#1485,#1486);
#1154=AXIS2_PLACEMENT_3D('',#1744,#1487,#1488);
#1155=AXIS2_PLACEMENT_3D('',#1745,#1489,#1490);
#1156=AXIS2_PLACEMENT_3D('',#1746,#1491,#1492);
#1157=AXIS2_PLACEMENT_3D('',#1747,#1493,#1494);
#1158=AXIS2_PLACEMENT_3D('',#1748,#1495,#1496);
#1159=AXIS2_PLACEMENT_3D('',#1749,#1497,#1498);
#1160=AXIS2_PLACEMENT_3D('',#1750,#1499,#1500);
#1161=AXIS2_PLACEMENT_3D('',#1751,#1501,#1502);
#1162=DIRECTION('axis',(0.,0.,1.));
#1163=DIRECTION('refdir',(1.,0.,0.));
#1164=DIRECTION('axis',(0.,0.,1.));
#1165=DIRECTION('refdir',(1.,0.,0.));
#1166=DIRECTION('center_axis',(0.,0.,1.));
#1167=DIRECTION('ref_axis',(1.,0.,0.));
#1168=DIRECTION('center_axis',(0.,0.,-1.));
#1169=DIRECTION('ref_axis',(1.,0.,0.));
#1170=DIRECTION('',(0.,0.,-1.));
#1171=DIRECTION('center_axis',(0.,0.,-1.));
#1172=DIRECTION('ref_axis',(1.,0.,0.));
#1173=DIRECTION('center_axis',(0.,0.,1.));
#1174=DIRECTION('ref_axis',(1.,0.,0.));
#1175=DIRECTION('center_axis',(0.,0.,1.));
#1176=DIRECTION('ref_axis',(1.,0.,0.));
#1177=DIRECTION('',(0.,0.,-1.));
#1178=DIRECTION('center_axis',(0.,0.,1.));
#1179=DIRECTION('ref_axis',(1.,0.,0.));
#1180=DIRECTION('center_axis',(0.,0.,1.));
#1181=DIRECTION('ref_axis',(1.,0.,0.));
#1182=DIRECTION('center_axis',(0.,0.,1.));
#1183=DIRECTION('ref_axis',(1.,0.,0.));
#1184=DIRECTION('center_axis',(0.,0.,1.));
#1185=DIRECTION('ref_axis',(1.,0.,0.));
#1186=DIRECTION('center_axis',(0.,0.,-1.));
#1187=DIRECTION('ref_axis',(1.,0.,0.));
#1188=DIRECTION('',(0.,0.,-1.));
#1189=DIRECTION('center_axis',(0.,0.,-1.));
#1190=DIRECTION('ref_axis',(1.,0.,0.));
#1191=DIRECTION('center_axis',(0.,0.,1.));
#1192=DIRECTION('ref_axis',(1.,0.,0.));
#1193=DIRECTION('center_axis',(0.,0.,1.));
#1194=DIRECTION('ref_axis',(1.,0.,0.));
#1195=DIRECTION('',(0.,0.,-1.));
#1196=DIRECTION('center_axis',(0.,0.,1.));
#1197=DIRECTION('ref_axis',(1.,0.,0.));
#1198=DIRECTION('center_axis',(0.,0.,1.));
#1199=DIRECTION('ref_axis',(1.,0.,0.));
#1200=DIRECTION('center_axis',(0.,0.,1.));
#1201=DIRECTION('ref_axis',(1.,0.,0.));
#1202=DIRECTION('center_axis',(0.,0.,1.));
#1203=DIRECTION('ref_axis',(1.,0.,0.));
#1204=DIRECTION('center_axis',(0.,0.,-1.));
#1205=DIRECTION('ref_axis',(1.,0.,0.));
#1206=DIRECTION('',(0.,0.,-1.));
#1207=DIRECTION('center_axis',(0.,0.,-1.));
#1208=DIRECTION('ref_axis',(1.,0.,0.));
#1209=DIRECTION('center_axis',(0.,0.,1.));
#1210=DIRECTION('ref_axis',(1.,0.,0.));
#1211=DIRECTION('center_axis',(0.,0.,1.));
#1212=DIRECTION('ref_axis',(1.,0.,0.));
#1213=DIRECTION('',(0.,0.,-1.));
#1214=DIRECTION('center_axis',(0.,0.,1.));
#1215=DIRECTION('ref_axis',(1.,0.,0.));
#1216=DIRECTION('center_axis',(0.,0.,1.));
#1217=DIRECTION('ref_axis',(1.,0.,0.));
#1218=DIRECTION('center_axis',(0.,0.,1.));
#1219=DIRECTION('ref_axis',(1.,0.,0.));
#1220=DIRECTION('axis',(0.,0.,1.));
#1221=DIRECTION('refdir',(1.,0.,0.));
#1222=DIRECTION('center_axis',(0.,0.,-1.));
#1223=DIRECTION('ref_axis',(1.,0.,0.));
#1224=DIRECTION('center_axis',(0.,0.,-1.));
#1225=DIRECTION('ref_axis',(1.,0.,0.));
#1226=DIRECTION('',(0.,0.,-1.));
#1227=DIRECTION('center_axis',(0.,0.,1.));
#1228=DIRECTION('ref_axis',(1.,0.,0.));
#1229=DIRECTION('center_axis',(0.,0.,-1.));
#1230=DIRECTION('ref_axis',(1.,0.,0.));
#1231=DIRECTION('center_axis',(0.,0.,1.));
#1232=DIRECTION('ref_axis',(1.,0.,0.));
#1233=DIRECTION('',(0.,0.,-1.));
#1234=DIRECTION('center_axis',(0.,0.,1.));
#1235=DIRECTION('ref_axis',(1.,0.,0.));
#1236=DIRECTION('center_axis',(0.,0.,1.));
#1237=DIRECTION('ref_axis',(1.,0.,0.));
#1238=DIRECTION('center_axis',(0.,0.,-1.));
#1239=DIRECTION('ref_axis',(1.,0.,0.));
#1240=DIRECTION('center_axis',(0.,0.,-1.));
#1241=DIRECTION('ref_axis',(1.,0.,0.));
#1242=DIRECTION('',(0.,0.,1.));
#1243=DIRECTION('center_axis',(0.,0.,1.));
#1244=DIRECTION('ref_axis',(1.,0.,0.));
#1245=DIRECTION('center_axis',(0.,0.,1.));
#1246=DIRECTION('ref_axis',(1.,0.,0.));
#1247=DIRECTION('center_axis',(0.,0.,1.));
#1248=DIRECTION('ref_axis',(1.,0.,0.));
#1249=DIRECTION('axis',(0.,0.,1.));
#1250=DIRECTION('refdir',(1.,0.,0.));
#1251=DIRECTION('center_axis',(0.,0.,1.));
#1252=DIRECTION('ref_axis',(1.,0.,0.));
#1253=DIRECTION('center_axis',(0.,0.,1.));
#1254=DIRECTION('ref_axis',(1.,0.,0.));
#1255=DIRECTION('',(0.,0.,-1.));
#1256=DIRECTION('center_axis',(0.,0.,1.));
#1257=DIRECTION('ref_axis',(1.,0.,0.));
#1258=DIRECTION('center_axis',(0.,0.,1.));
#1259=DIRECTION('ref_axis',(1.,0.,0.));
#1260=DIRECTION('center_axis',(0.,0.,1.));
#1261=DIRECTION('ref_axis',(1.,0.,0.));
#1262=DIRECTION('center_axis',(0.819152044288992,0.,0.573576436351046));
#1263=DIRECTION('ref_axis',(0.,1.,0.));
#1264=DIRECTION('center_axis',(0.819152044288992,0.,0.573576436351046));
#1265=DIRECTION('ref_axis',(0.,1.,0.));
#1266=DIRECTION('',(-0.819152044288992,0.,-0.573576436351046));
#1267=DIRECTION('center_axis',(0.819152044288992,0.,0.573576436351046));
#1268=DIRECTION('ref_axis',(0.,1.,0.));
#1269=DIRECTION('center_axis',(0.819152044288992,0.,0.573576436351046));
#1270=DIRECTION('ref_axis',(0.,1.,0.));
#1271=DIRECTION('center_axis',(0.819152044288992,0.,0.573576436351046));
#1272=DIRECTION('ref_axis',(0.,1.,0.));
#1273=DIRECTION('center_axis',(5.01585964526762E-17,0.819152044288992,0.573576436351046));
#1274=DIRECTION('ref_axis',(-1.,6.12323399573677E-17,0.));
#1275=DIRECTION('center_axis',(5.01585964526762E-17,0.819152044288992,0.573576436351046));
#1276=DIRECTION('ref_axis',(-1.,6.12323399573677E-17,0.));
#1277=DIRECTION('',(-5.01585964526762E-17,-0.819152044288992,-0.573576436351046));
#1278=DIRECTION('center_axis',(5.01585964526762E-17,0.819152044288992,0.573576436351046));
#1279=DIRECTION('ref_axis',(-1.,6.12323399573677E-17,0.));
#1280=DIRECTION('center_axis',(5.01585964526762E-17,0.819152044288992,0.573576436351046));
#1281=DIRECTION('ref_axis',(-1.,6.12323399573677E-17,0.));
#1282=DIRECTION('center_axis',(5.01585964526762E-17,0.819152044288992,0.573576436351046));
#1283=DIRECTION('ref_axis',(-1.,6.12323399573677E-17,0.));
#1284=DIRECTION('center_axis',(-0.819152044288992,1.00317192905352E-16,
0.573576436351046));
#1285=DIRECTION('ref_axis',(-1.22464679914735E-16,-1.,0.));
#1286=DIRECTION('center_axis',(-0.819152044288992,1.00317192905352E-16,
0.573576436351046));
#1287=DIRECTION('ref_axis',(-1.22464679914735E-16,-1.,0.));
#1288=DIRECTION('',(0.819152044288992,-1.00317192905352E-16,-0.573576436351046));
#1289=DIRECTION('center_axis',(-0.819152044288992,1.00317192905352E-16,
0.573576436351046));
#1290=DIRECTION('ref_axis',(-1.22464679914735E-16,-1.,0.));
#1291=DIRECTION('center_axis',(-0.819152044288992,1.00317192905352E-16,
0.573576436351046));
#1292=DIRECTION('ref_axis',(-1.22464679914735E-16,-1.,0.));
#1293=DIRECTION('center_axis',(-0.819152044288992,1.00317192905352E-16,
0.573576436351046));
#1294=DIRECTION('ref_axis',(-1.22464679914735E-16,-1.,0.));
#1295=DIRECTION('center_axis',(-1.50475789358029E-16,-0.819152044288992,
0.573576436351046));
#1296=DIRECTION('ref_axis',(1.,-1.83697019872103E-16,0.));
#1297=DIRECTION('center_axis',(-1.50475789358029E-16,-0.819152044288992,
0.573576436351046));
#1298=DIRECTION('ref_axis',(1.,-1.83697019872103E-16,0.));
#1299=DIRECTION('',(1.50475789358029E-16,0.819152044288992,-0.573576436351046));
#1300=DIRECTION('center_axis',(-1.50475789358029E-16,-0.819152044288992,
0.573576436351046));
#1301=DIRECTION('ref_axis',(1.,-1.83697019872103E-16,0.));
#1302=DIRECTION('center_axis',(-1.50475789358029E-16,-0.819152044288992,
0.573576436351046));
#1303=DIRECTION('ref_axis',(1.,-1.83697019872103E-16,0.));
#1304=DIRECTION('center_axis',(-1.50475789358029E-16,-0.819152044288992,
0.573576436351046));
#1305=DIRECTION('ref_axis',(1.,-1.83697019872103E-16,0.));
#1306=DIRECTION('axis',(0.,0.,1.));
#1307=DIRECTION('refdir',(1.,0.,0.));
#1308=DIRECTION('center_axis',(0.,0.,1.));
#1309=DIRECTION('ref_axis',(1.,0.,0.));
#1310=DIRECTION('center_axis',(0.,0.,1.));
#1311=DIRECTION('ref_axis',(1.,0.,0.));
#1312=DIRECTION('',(0.,0.,-1.));
#1313=DIRECTION('center_axis',(0.,0.,1.));
#1314=DIRECTION('ref_axis',(1.,0.,0.));
#1315=DIRECTION('center_axis',(0.,0.,1.));
#1316=DIRECTION('ref_axis',(1.,0.,0.));
#1317=DIRECTION('center_axis',(0.,0.,1.));
#1318=DIRECTION('ref_axis',(1.,0.,0.));
#1319=DIRECTION('center_axis',(0.866025403784439,0.,0.5));
#1320=DIRECTION('ref_axis',(0.,1.,0.));
#1321=DIRECTION('center_axis',(0.866025403784439,0.,0.5));
#1322=DIRECTION('ref_axis',(0.,1.,0.));
#1323=DIRECTION('',(-0.866025403784439,0.,-0.5));
#1324=DIRECTION('center_axis',(0.866025403784439,0.,0.5));
#1325=DIRECTION('ref_axis',(0.,1.,0.));
#1326=DIRECTION('center_axis',(0.866025403784439,0.,0.5));
#1327=DIRECTION('ref_axis',(0.,1.,0.));
#1328=DIRECTION('center_axis',(0.866025403784439,0.,0.5));
#1329=DIRECTION('ref_axis',(0.,1.,0.));
#1330=DIRECTION('center_axis',(5.30287619362453E-17,0.866025403784439,0.5));
#1331=DIRECTION('ref_axis',(-1.,6.12323399573677E-17,0.));
#1332=DIRECTION('center_axis',(5.30287619362453E-17,0.866025403784439,0.5));
#1333=DIRECTION('ref_axis',(-1.,6.12323399573677E-17,0.));
#1334=DIRECTION('',(-5.30287619362453E-17,-0.866025403784439,-0.5));
#1335=DIRECTION('center_axis',(5.30287619362453E-17,0.866025403784439,0.5));
#1336=DIRECTION('ref_axis',(-1.,6.12323399573677E-17,0.));
#1337=DIRECTION('center_axis',(5.30287619362453E-17,0.866025403784439,0.5));
#1338=DIRECTION('ref_axis',(-1.,6.12323399573677E-17,0.));
#1339=DIRECTION('center_axis',(5.30287619362453E-17,0.866025403784439,0.5));
#1340=DIRECTION('ref_axis',(-1.,6.12323399573677E-17,0.));
#1341=DIRECTION('center_axis',(-0.866025403784439,1.06057523872491E-16,
0.5));
#1342=DIRECTION('ref_axis',(-1.22464679914735E-16,-1.,0.));
#1343=DIRECTION('center_axis',(-0.866025403784439,1.06057523872491E-16,
0.5));
#1344=DIRECTION('ref_axis',(-1.22464679914735E-16,-1.,0.));
#1345=DIRECTION('',(0.866025403784439,-1.06057523872491E-16,-0.5));
#1346=DIRECTION('center_axis',(-0.866025403784439,1.06057523872491E-16,
0.5));
#1347=DIRECTION('ref_axis',(-1.22464679914735E-16,-1.,0.));
#1348=DIRECTION('center_axis',(-0.866025403784439,1.06057523872491E-16,
0.5));
#1349=DIRECTION('ref_axis',(-1.22464679914735E-16,-1.,0.));
#1350=DIRECTION('center_axis',(-0.866025403784439,1.06057523872491E-16,
0.5));
#1351=DIRECTION('ref_axis',(-1.22464679914735E-16,-1.,0.));
#1352=DIRECTION('center_axis',(-1.59086285808736E-16,-0.866025403784439,
0.5));
#1353=DIRECTION('ref_axis',(1.,-1.83697019872103E-16,0.));
#1354=DIRECTION('center_axis',(-1.59086285808736E-16,-0.866025403784439,
0.5));
#1355=DIRECTION('ref_axis',(1.,-1.83697019872103E-16,0.));
#1356=DIRECTION('',(1.59086285808736E-16,0.866025403784439,-0.5));
#1357=DIRECTION('center_axis',(-1.59086285808736E-16,-0.866025403784439,
0.5));
#1358=DIRECTION('ref_axis',(1.,-1.83697019872103E-16,0.));
#1359=DIRECTION('center_axis',(-1.59086285808736E-16,-0.866025403784439,
0.5));
#1360=DIRECTION('ref_axis',(1.,-1.83697019872103E-16,0.));
#1361=DIRECTION('center_axis',(-1.59086285808736E-16,-0.866025403784439,
0.5));
#1362=DIRECTION('ref_axis',(1.,-1.83697019872103E-16,0.));
#1363=DIRECTION('axis',(0.,0.,1.));
#1364=DIRECTION('refdir',(1.,0.,0.));
#1365=DIRECTION('center_axis',(1.,0.,0.));
#1366=DIRECTION('ref_axis',(0.,1.,0.));
#1367=DIRECTION('center_axis',(1.,0.,0.));
#1368=DIRECTION('ref_axis',(0.,1.,0.));
#1369=DIRECTION('',(-1.,0.,0.));
#1370=DIRECTION('center_axis',(1.,0.,0.));
#1371=DIRECTION('ref_axis',(0.,1.,0.));
#1372=DIRECTION('center_axis',(1.,0.,0.));
#1373=DIRECTION('ref_axis',(0.,1.,0.));
#1374=DIRECTION('center_axis',(1.,0.,0.));
#1375=DIRECTION('ref_axis',(0.,1.,0.));
#1376=DIRECTION('center_axis',(0.,0.,1.));
#1377=DIRECTION('ref_axis',(1.,0.,0.));
#1378=DIRECTION('center_axis',(0.,0.,1.));
#1379=DIRECTION('ref_axis',(1.,0.,0.));
#1380=DIRECTION('',(0.,0.,-1.));
#1381=DIRECTION('center_axis',(0.,0.,1.));
#1382=DIRECTION('ref_axis',(1.,0.,0.));
#1383=DIRECTION('center_axis',(0.,0.,1.));
#1384=DIRECTION('ref_axis',(1.,0.,0.));
#1385=DIRECTION('center_axis',(0.,0.,1.));
#1386=DIRECTION('ref_axis',(1.,0.,0.));
#1387=DIRECTION('axis',(0.,0.,1.));
#1388=DIRECTION('refdir',(1.,0.,0.));
#1389=DIRECTION('center_axis',(2.09121549308767E-32,-5.35873970103714E-32,
1.));
#1390=DIRECTION('ref_axis',(1.,0.,-2.09121549308767E-32));
#1391=DIRECTION('',(-0.707106781186548,0.707106781186548,0.));
#1392=DIRECTION('',(-0.707106781186548,-0.707106781186548,0.));
#1393=DIRECTION('',(0.707106781186548,-0.707106781186548,0.));
#1394=DIRECTION('',(0.707106781186548,0.707106781186548,0.));
#1395=DIRECTION('axis',(0.,0.,1.));
#1396=DIRECTION('refdir',(1.,0.,0.));
#1397=DIRECTION('axis',(0.,0.,1.));
#1398=DIRECTION('refdir',(1.,0.,0.));
#1399=DIRECTION('center_axis',(-0.707106781186548,0.707106781186548,0.));
#1400=DIRECTION('ref_axis',(-0.707106781186548,-0.707106781186548,0.));
#1401=DIRECTION('center_axis',(-0.707106781186548,0.707106781186548,0.));
#1402=DIRECTION('ref_axis',(-0.707106781186548,-0.707106781186548,0.));
#1403=DIRECTION('',(0.707106781186548,-0.707106781186548,0.));
#1404=DIRECTION('center_axis',(-0.707106781186548,0.707106781186548,0.));
#1405=DIRECTION('ref_axis',(-0.707106781186548,-0.707106781186548,0.));
#1406=DIRECTION('center_axis',(-0.707106781186548,0.707106781186548,0.));
#1407=DIRECTION('ref_axis',(-0.707106781186548,-0.707106781186548,0.));
#1408=DIRECTION('center_axis',(-0.707106781186548,0.707106781186548,0.));
#1409=DIRECTION('ref_axis',(-0.707106781186548,-0.707106781186548,0.));
#1410=DIRECTION('center_axis',(-0.707106781186548,-0.707106781186548,0.));
#1411=DIRECTION('ref_axis',(0.707106781186548,-0.707106781186548,0.));
#1412=DIRECTION('center_axis',(-0.707106781186548,-0.707106781186548,0.));
#1413=DIRECTION('ref_axis',(0.707106781186548,-0.707106781186548,0.));
#1414=DIRECTION('',(0.707106781186548,0.707106781186548,0.));
#1415=DIRECTION('center_axis',(-0.707106781186548,-0.707106781186548,0.));
#1416=DIRECTION('ref_axis',(0.707106781186548,-0.707106781186548,0.));
#1417=DIRECTION('center_axis',(-0.707106781186548,-0.707106781186548,0.));
#1418=DIRECTION('ref_axis',(0.707106781186548,-0.707106781186548,0.));
#1419=DIRECTION('center_axis',(-0.707106781186548,-0.707106781186548,0.));
#1420=DIRECTION('ref_axis',(0.707106781186548,-0.707106781186548,0.));
#1421=DIRECTION('center_axis',(0.707106781186547,-0.707106781186548,0.));
#1422=DIRECTION('ref_axis',(0.707106781186548,0.707106781186547,0.));
#1423=DIRECTION('center_axis',(0.707106781186547,-0.707106781186548,0.));
#1424=DIRECTION('ref_axis',(0.707106781186548,0.707106781186547,0.));
#1425=DIRECTION('',(-0.707106781186547,0.707106781186548,0.));
#1426=DIRECTION('center_axis',(0.707106781186547,-0.707106781186548,0.));
#1427=DIRECTION('ref_axis',(0.707106781186548,0.707106781186547,0.));
#1428=DIRECTION('center_axis',(0.707106781186547,-0.707106781186548,0.));
#1429=DIRECTION('ref_axis',(0.707106781186548,0.707106781186547,0.));
#1430=DIRECTION('center_axis',(0.707106781186547,-0.707106781186548,0.));
#1431=DIRECTION('ref_axis',(0.707106781186548,0.707106781186547,0.));
#1432=DIRECTION('center_axis',(0.707106781186548,0.707106781186547,0.));
#1433=DIRECTION('ref_axis',(-0.707106781186547,0.707106781186548,0.));
#1434=DIRECTION('center_axis',(0.707106781186548,0.707106781186547,0.));
#1435=DIRECTION('ref_axis',(-0.707106781186547,0.707106781186548,0.));
#1436=DIRECTION('',(-0.707106781186548,-0.707106781186547,0.));
#1437=DIRECTION('center_axis',(0.707106781186548,0.707106781186547,0.));
#1438=DIRECTION('ref_axis',(-0.707106781186547,0.707106781186548,0.));
#1439=DIRECTION('center_axis',(0.707106781186548,0.707106781186547,0.));
#1440=DIRECTION('ref_axis',(-0.707106781186547,0.707106781186548,0.));
#1441=DIRECTION('center_axis',(0.707106781186548,0.707106781186547,0.));
#1442=DIRECTION('ref_axis',(-0.707106781186547,0.707106781186548,0.));
#1443=DIRECTION('center_axis',(-0.707106781186548,0.707106781186548,0.));
#1444=DIRECTION('ref_axis',(-0.707106781186548,-0.707106781186548,0.));
#1445=DIRECTION('center_axis',(-0.707106781186548,0.707106781186548,0.));
#1446=DIRECTION('ref_axis',(-0.707106781186548,-0.707106781186548,0.));
#1447=DIRECTION('',(0.707106781186548,-0.707106781186548,0.));
#1448=DIRECTION('center_axis',(-0.707106781186548,0.707106781186548,0.));
#1449=DIRECTION('ref_axis',(-0.707106781186548,-0.707106781186548,0.));
#1450=DIRECTION('center_axis',(-0.707106781186548,0.707106781186548,0.));
#1451=DIRECTION('ref_axis',(-0.707106781186548,-0.707106781186548,0.));
#1452=DIRECTION('center_axis',(-0.707106781186548,0.707106781186548,0.));
#1453=DIRECTION('ref_axis',(-0.707106781186548,-0.707106781186548,0.));
#1454=DIRECTION('center_axis',(-0.707106781186548,-0.707106781186548,0.));
#1455=DIRECTION('ref_axis',(0.707106781186548,-0.707106781186548,0.));
#1456=DIRECTION('center_axis',(-0.707106781186548,-0.707106781186548,0.));
#1457=DIRECTION('ref_axis',(0.707106781186548,-0.707106781186548,0.));
#1458=DIRECTION('',(0.707106781186548,0.707106781186548,0.));
#1459=DIRECTION('center_axis',(-0.707106781186548,-0.707106781186548,0.));
#1460=DIRECTION('ref_axis',(0.707106781186548,-0.707106781186548,0.));
#1461=DIRECTION('center_axis',(-0.707106781186548,-0.707106781186548,0.));
#1462=DIRECTION('ref_axis',(0.707106781186548,-0.707106781186548,0.));
#1463=DIRECTION('center_axis',(-0.707106781186548,-0.707106781186548,0.));
#1464=DIRECTION('ref_axis',(0.707106781186548,-0.707106781186548,0.));
#1465=DIRECTION('center_axis',(0.707106781186547,-0.707106781186548,0.));
#1466=DIRECTION('ref_axis',(0.707106781186548,0.707106781186547,0.));
#1467=DIRECTION('center_axis',(0.707106781186547,-0.707106781186548,0.));
#1468=DIRECTION('ref_axis',(0.707106781186548,0.707106781186547,0.));
#1469=DIRECTION('',(-0.707106781186547,0.707106781186548,0.));
#1470=DIRECTION('center_axis',(0.707106781186547,-0.707106781186548,0.));
#1471=DIRECTION('ref_axis',(0.707106781186548,0.707106781186547,0.));
#1472=DIRECTION('center_axis',(0.707106781186547,-0.707106781186548,0.));
#1473=DIRECTION('ref_axis',(0.707106781186548,0.707106781186547,0.));
#1474=DIRECTION('center_axis',(0.707106781186547,-0.707106781186548,0.));
#1475=DIRECTION('ref_axis',(0.707106781186548,0.707106781186547,0.));
#1476=DIRECTION('center_axis',(0.707106781186548,0.707106781186547,0.));
#1477=DIRECTION('ref_axis',(-0.707106781186547,0.707106781186548,0.));
#1478=DIRECTION('center_axis',(0.707106781186548,0.707106781186547,0.));
#1479=DIRECTION('ref_axis',(-0.707106781186547,0.707106781186548,0.));
#1480=DIRECTION('',(-0.707106781186548,-0.707106781186547,0.));
#1481=DIRECTION('center_axis',(0.707106781186548,0.707106781186547,0.));
#1482=DIRECTION('ref_axis',(-0.707106781186547,0.707106781186548,0.));
#1483=DIRECTION('center_axis',(0.707106781186548,0.707106781186547,0.));
#1484=DIRECTION('ref_axis',(-0.707106781186547,0.707106781186548,0.));
#1485=DIRECTION('center_axis',(0.707106781186548,0.707106781186547,0.));
#1486=DIRECTION('ref_axis',(-0.707106781186547,0.707106781186548,0.));
#1487=DIRECTION('',(0.,0.,1.));
#1488=DIRECTION('',(1.,0.,0.));
#1489=DIRECTION('',(0.,0.,1.));
#1490=DIRECTION('',(1.,0.,0.));
#1491=DIRECTION('',(0.,0.,1.));
#1492=DIRECTION('',(1.,0.,0.));
#1493=DIRECTION('',(0.,0.,1.));
#1494=DIRECTION('',(1.,0.,0.));
#1495=DIRECTION('',(0.,0.,1.));
#1496=DIRECTION('',(1.,0.,0.));
#1497=DIRECTION('',(0.,0.,1.));
#1498=DIRECTION('',(1.,0.,0.));
#1499=DIRECTION('',(0.,0.,1.));
#1500=DIRECTION('',(1.,0.,0.));
#1501=DIRECTION('',(0.,0.,1.));
#1502=DIRECTION('',(1.,0.,0.));
#1503=CARTESIAN_POINT('',(0.,0.,0.));
#1504=CARTESIAN_POINT('',(0.,0.,0.));
#1505=CARTESIAN_POINT('Origin',(0.,0.,0.));
#1506=CARTESIAN_POINT('',(-1.45,-1.77573785876366E-16,78.6666666666667));
#1507=CARTESIAN_POINT('Origin',(0.,0.,78.6666666666667));
#1508=CARTESIAN_POINT('',(-1.45,-1.77573785876366E-16,0.));
#1509=CARTESIAN_POINT('',(-1.45,-1.77573785876366E-16,0.));
#1510=CARTESIAN_POINT('Origin',(0.,0.,0.));
#1511=CARTESIAN_POINT('Origin',(0.,0.,0.));
#1512=CARTESIAN_POINT('',(-1.6,-1.95943487863577E-16,78.6666666666667));
#1513=CARTESIAN_POINT('Origin',(0.,0.,78.6666666666667));
#1514=CARTESIAN_POINT('',(-1.6,-1.95943487863577E-16,0.));
#1515=CARTESIAN_POINT('',(-1.6,-1.95943487863577E-16,0.));
#1516=CARTESIAN_POINT('Origin',(0.,0.,0.));
#1517=CARTESIAN_POINT('Origin',(0.,0.,78.6666666666667));
#1518=CARTESIAN_POINT('Origin',(0.,0.,0.));
#1519=CARTESIAN_POINT('Origin',(0.,0.,70.6666666666667));
#1520=CARTESIAN_POINT('',(-1.13,-1.38385088303651E-16,149.333333333333));
#1521=CARTESIAN_POINT('Origin',(0.,0.,149.333333333333));
#1522=CARTESIAN_POINT('',(-1.13,-1.38385088303651E-16,70.6666666666667));
#1523=CARTESIAN_POINT('',(-1.13,-1.38385088303651E-16,70.6666666666667));
#1524=CARTESIAN_POINT('Origin',(0.,0.,70.6666666666667));
#1525=CARTESIAN_POINT('Origin',(0.,0.,70.6666666666667));
#1526=CARTESIAN_POINT('',(-1.25,-1.53080849893419E-16,149.333333333333));
#1527=CARTESIAN_POINT('Origin',(0.,0.,149.333333333333));
#1528=CARTESIAN_POINT('',(-1.25,-1.53080849893419E-16,70.6666666666667));
#1529=CARTESIAN_POINT('',(-1.25,-1.53080849893419E-16,70.6666666666667));
#1530=CARTESIAN_POINT('Origin',(0.,0.,70.6666666666667));
#1531=CARTESIAN_POINT('Origin',(0.,0.,149.333333333333));
#1532=CARTESIAN_POINT('Origin',(0.,0.,70.6666666666667));
#1533=CARTESIAN_POINT('Origin',(0.,0.,141.333333333333));
#1534=CARTESIAN_POINT('',(-0.85,-1.04094977927525E-16,220.));
#1535=CARTESIAN_POINT('Origin',(0.,0.,220.));
#1536=CARTESIAN_POINT('',(-0.85,-1.04094977927525E-16,141.333333333333));
#1537=CARTESIAN_POINT('',(-0.85,-1.04094977927525E-16,141.333333333333));
#1538=CARTESIAN_POINT('Origin',(0.,0.,141.333333333333));
#1539=CARTESIAN_POINT('Origin',(0.,0.,141.333333333333));
#1540=CARTESIAN_POINT('',(-0.95,-1.16341445918999E-16,220.));
#1541=CARTESIAN_POINT('Origin',(0.,0.,220.));
#1542=CARTESIAN_POINT('',(-0.95,-1.16341445918999E-16,141.333333333333));
#1543=CARTESIAN_POINT('',(-0.95,-1.16341445918999E-16,141.333333333333));
#1544=CARTESIAN_POINT('Origin',(0.,0.,141.333333333333));
#1545=CARTESIAN_POINT('Origin',(0.,0.,220.));
#1546=CARTESIAN_POINT('Origin',(0.,0.,141.333333333333));
#1547=CARTESIAN_POINT('',(0.,0.,0.));
#1548=CARTESIAN_POINT('Origin',(0.,0.,0.));
#1549=CARTESIAN_POINT('',(-1.625,-1.99005104861445E-16,0.));
#1550=CARTESIAN_POINT('Origin',(0.,0.,0.));
#1551=CARTESIAN_POINT('',(-1.625,-1.99005104861445E-16,-6.));
#1552=CARTESIAN_POINT('',(-1.625,1.99005104861445E-16,0.));
#1553=CARTESIAN_POINT('Origin',(0.,0.,-6.));
#1554=CARTESIAN_POINT('Origin',(0.,0.,-6.));
#1555=CARTESIAN_POINT('',(-4.5,-5.51091059616309E-16,-6.));
#1556=CARTESIAN_POINT('Origin',(0.,0.,-6.));
#1557=CARTESIAN_POINT('',(-4.5,-5.51091059616309E-16,-21.));
#1558=CARTESIAN_POINT('',(-4.5,5.51091059616309E-16,-6.));
#1559=CARTESIAN_POINT('Origin',(0.,0.,-21.));
#1560=CARTESIAN_POINT('Origin',(0.,0.,-6.));
#1561=CARTESIAN_POINT('Origin',(0.,0.,0.));
#1562=CARTESIAN_POINT('',(-5.3,-6.49062803548097E-16,-21.));
#1563=CARTESIAN_POINT('Origin',(0.,0.,-21.));
#1564=CARTESIAN_POINT('',(-5.3,-6.49062803548097E-16,0.));
#1565=CARTESIAN_POINT('',(-5.3,6.49062803548097E-16,0.));
#1566=CARTESIAN_POINT('Origin',(0.,0.,0.));
#1567=CARTESIAN_POINT('Origin',(0.,0.,0.));
#1568=CARTESIAN_POINT('Origin',(0.,0.,-21.));
#1569=CARTESIAN_POINT('',(0.,0.,0.));
#1570=CARTESIAN_POINT('Origin',(0.,0.,58.5));
#1571=CARTESIAN_POINT('',(-2.2,-2.69422295812418E-16,61.5));
#1572=CARTESIAN_POINT('Origin',(0.,0.,61.5));
#1573=CARTESIAN_POINT('',(-2.2,-2.69422295812418E-16,58.5));
#1574=CARTESIAN_POINT('',(-2.2,-2.69422295812418E-16,58.5));
#1575=CARTESIAN_POINT('Origin',(0.,0.,58.5));
#1576=CARTESIAN_POINT('Origin',(0.,0.,61.5));
#1577=CARTESIAN_POINT('Origin',(0.,0.,58.5));
#1578=CARTESIAN_POINT('Origin',(2.2,0.,60.));
#1579=CARTESIAN_POINT('',(75.9236839860093,-0.4,111.621879271594));
#1580=CARTESIAN_POINT('Origin',(75.9236839860093,0.,111.621879271594));
#1581=CARTESIAN_POINT('',(2.2,-0.4,60.));
#1582=CARTESIAN_POINT('',(2.2,-0.4,60.));
#1583=CARTESIAN_POINT('Origin',(2.2,0.,60.));
#1584=CARTESIAN_POINT('Origin',(75.9236839860093,0.,111.621879271594));
#1585=CARTESIAN_POINT('Origin',(2.2,0.,60.));
#1586=CARTESIAN_POINT('Origin',(1.34711147906209E-16,2.2,60.));
#1587=CARTESIAN_POINT('',(0.400000000000005,75.9236839860093,111.621879271594));
#1588=CARTESIAN_POINT('Origin',(4.64898482864707E-15,75.9236839860093,111.621879271594));
#1589=CARTESIAN_POINT('',(0.4,2.2,60.));
#1590=CARTESIAN_POINT('',(0.4,2.2,60.));
#1591=CARTESIAN_POINT('Origin',(1.34711147906209E-16,2.2,60.));
#1592=CARTESIAN_POINT('Origin',(4.64898482864707E-15,75.9236839860093,111.621879271594));
#1593=CARTESIAN_POINT('Origin',(1.34711147906209E-16,2.2,60.));
#1594=CARTESIAN_POINT('Origin',(-2.2,2.69422295812418E-16,60.));
#1595=CARTESIAN_POINT('',(-75.9236839860093,0.400000000000009,111.621879271594));
#1596=CARTESIAN_POINT('Origin',(-75.9236839860093,9.29796965729414E-15,
111.621879271594));
#1597=CARTESIAN_POINT('',(-2.2,0.4,60.));
#1598=CARTESIAN_POINT('',(-2.2,0.4,60.));
#1599=CARTESIAN_POINT('Origin',(-2.2,2.69422295812418E-16,60.));
#1600=CARTESIAN_POINT('Origin',(-75.9236839860093,9.29796965729414E-15,
111.621879271594));
#1601=CARTESIAN_POINT('Origin',(-2.2,2.69422295812418E-16,60.));
#1602=CARTESIAN_POINT('Origin',(-4.04133443718627E-16,-2.2,60.));
#1603=CARTESIAN_POINT('',(-0.400000000000014,-75.9236839860093,111.621879271594));
#1604=CARTESIAN_POINT('Origin',(-1.39469544859412E-14,-75.9236839860093,
111.621879271594));
#1605=CARTESIAN_POINT('',(-0.4,-2.2,60.));
#1606=CARTESIAN_POINT('',(-0.4,-2.2,60.));
#1607=CARTESIAN_POINT('Origin',(-4.04133443718627E-16,-2.2,60.));
#1608=CARTESIAN_POINT('Origin',(-1.39469544859412E-14,-75.9236839860093,
111.621879271594));
#1609=CARTESIAN_POINT('Origin',(-4.04133443718627E-16,-2.2,60.));
#1610=CARTESIAN_POINT('',(0.,0.,0.));
#1611=CARTESIAN_POINT('Origin',(0.,0.,148.75));
#1612=CARTESIAN_POINT('',(-1.75,-2.14313189850787E-16,151.25));
#1613=CARTESIAN_POINT('Origin',(0.,0.,151.25));
#1614=CARTESIAN_POINT('',(-1.75,-2.14313189850787E-16,148.75));
#1615=CARTESIAN_POINT('',(-1.75,-2.14313189850787E-16,148.75));
#1616=CARTESIAN_POINT('Origin',(0.,0.,148.75));
#1617=CARTESIAN_POINT('Origin',(0.,0.,151.25));
#1618=CARTESIAN_POINT('Origin',(0.,0.,148.75));
#1619=CARTESIAN_POINT('Origin',(1.75,0.,150.));
#1620=CARTESIAN_POINT('',(40.7211431702997,-0.3,172.5));
#1621=CARTESIAN_POINT('Origin',(40.7211431702997,0.,172.5));
#1622=CARTESIAN_POINT('',(1.75,-0.3,150.));
#1623=CARTESIAN_POINT('',(1.75,-0.3,150.));
#1624=CARTESIAN_POINT('Origin',(1.75,0.,150.));
#1625=CARTESIAN_POINT('Origin',(40.7211431702997,0.,172.5));
#1626=CARTESIAN_POINT('Origin',(1.75,0.,150.));
#1627=CARTESIAN_POINT('Origin',(1.07156594925393E-16,1.75,150.));
#1628=CARTESIAN_POINT('',(0.300000000000002,40.7211431702997,172.5));
#1629=CARTESIAN_POINT('Origin',(2.49345088205643E-15,40.7211431702997,172.5));
#1630=CARTESIAN_POINT('',(0.3,1.75,150.));
#1631=CARTESIAN_POINT('',(0.3,1.75,150.));
#1632=CARTESIAN_POINT('Origin',(1.07156594925393E-16,1.75,150.));
#1633=CARTESIAN_POINT('Origin',(2.49345088205643E-15,40.7211431702997,172.5));
#1634=CARTESIAN_POINT('Origin',(1.07156594925393E-16,1.75,150.));
#1635=CARTESIAN_POINT('Origin',(-1.75,2.14313189850787E-16,150.));
#1636=CARTESIAN_POINT('',(-40.7211431702997,0.300000000000005,172.5));
#1637=CARTESIAN_POINT('Origin',(-40.7211431702997,4.98690176411287E-15,
172.5));
#1638=CARTESIAN_POINT('',(-1.75,0.3,150.));
#1639=CARTESIAN_POINT('',(-1.75,0.3,150.));
#1640=CARTESIAN_POINT('Origin',(-1.75,2.14313189850787E-16,150.));
#1641=CARTESIAN_POINT('Origin',(-40.7211431702997,4.98690176411287E-15,
172.5));
#1642=CARTESIAN_POINT('Origin',(-1.75,2.14313189850787E-16,150.));
#1643=CARTESIAN_POINT('Origin',(-3.2146978477618E-16,-1.75,150.));
#1644=CARTESIAN_POINT('',(-0.300000000000007,-40.7211431702997,172.5));
#1645=CARTESIAN_POINT('Origin',(-7.4803526461693E-15,-40.7211431702997,
172.5));
#1646=CARTESIAN_POINT('',(-0.3,-1.75,150.));
#1647=CARTESIAN_POINT('',(-0.3,-1.75,150.));
#1648=CARTESIAN_POINT('Origin',(-3.2146978477618E-16,-1.75,150.));
#1649=CARTESIAN_POINT('Origin',(-7.4803526461693E-15,-40.7211431702997,
172.5));
#1650=CARTESIAN_POINT('Origin',(-3.2146978477618E-16,-1.75,150.));
#1651=CARTESIAN_POINT('',(0.,0.,0.));
#1652=CARTESIAN_POINT('Origin',(-17.5,0.,195.));
#1653=CARTESIAN_POINT('',(17.5,-0.3,195.));
#1654=CARTESIAN_POINT('Origin',(17.5,0.,195.));
#1655=CARTESIAN_POINT('',(-17.5,-0.3,195.));
#1656=CARTESIAN_POINT('',(-17.5,-0.3,195.));
#1657=CARTESIAN_POINT('Origin',(-17.5,0.,195.));
#1658=CARTESIAN_POINT('Origin',(17.5,0.,195.));
#1659=CARTESIAN_POINT('Origin',(-17.5,0.,195.));
#1660=CARTESIAN_POINT('Origin',(0.,0.,217.));
#1661=CARTESIAN_POINT('',(-0.15,-1.83697019872103E-17,232.));
#1662=CARTESIAN_POINT('Origin',(0.,0.,232.));
#1663=CARTESIAN_POINT('',(-0.15,-1.83697019872103E-17,217.));
#1664=CARTESIAN_POINT('',(-0.15,-1.83697019872103E-17,217.));
#1665=CARTESIAN_POINT('Origin',(0.,0.,217.));
#1666=CARTESIAN_POINT('Origin',(0.,0.,232.));
#1667=CARTESIAN_POINT('Origin',(0.,0.,217.));
#1668=CARTESIAN_POINT('',(0.,0.,0.));
#1669=CARTESIAN_POINT('Origin',(0.,1.77635683940025E-15,111.621879271594));
#1670=CARTESIAN_POINT('',(75.93,0.,111.621879271594));
#1671=CARTESIAN_POINT('',(0.,75.93,111.621879271594));
#1672=CARTESIAN_POINT('',(75.93,0.,111.621879271594));
#1673=CARTESIAN_POINT('',(-75.93,0.,111.621879271594));
#1674=CARTESIAN_POINT('',(0.,75.93,111.621879271594));
#1675=CARTESIAN_POINT('',(0.,-75.93,111.621879271594));
#1676=CARTESIAN_POINT('',(-75.93,0.,111.621879271594));
#1677=CARTESIAN_POINT('',(0.,-75.93,111.621879271594));
#1678=CARTESIAN_POINT('',(0.,0.,0.));
#1679=CARTESIAN_POINT('',(0.,0.,0.));
#1680=CARTESIAN_POINT('Origin',(75.93,0.,111.621879271594));
#1681=CARTESIAN_POINT('',(0.0707106781186582,76.0007106781187,111.621879271594));
#1682=CARTESIAN_POINT('Origin',(0.,75.93,111.621879271594));
#1683=CARTESIAN_POINT('',(76.0007106781187,0.0707106781186548,111.621879271594));
#1684=CARTESIAN_POINT('',(76.0007106781187,0.0707106781186548,111.621879271594));
#1685=CARTESIAN_POINT('Origin',(75.93,0.,111.621879271594));
#1686=CARTESIAN_POINT('Origin',(0.,75.93,111.621879271594));
#1687=CARTESIAN_POINT('Origin',(75.93,0.,111.621879271594));
#1688=CARTESIAN_POINT('Origin',(4.64937157296293E-15,75.93,111.621879271594));
#1689=CARTESIAN_POINT('',(-76.0007106781187,0.0707106781186628,111.621879271594));
#1690=CARTESIAN_POINT('Origin',(-75.93,4.64937157296293E-15,111.621879271594));
#1691=CARTESIAN_POINT('',(-0.0707106781186501,76.0007106781187,111.621879271594));
#1692=CARTESIAN_POINT('',(-0.0707106781186501,76.0007106781187,111.621879271594));
#1693=CARTESIAN_POINT('Origin',(4.64937157296293E-15,75.93,111.621879271594));
#1694=CARTESIAN_POINT('Origin',(-75.93,4.64937157296293E-15,111.621879271594));
#1695=CARTESIAN_POINT('Origin',(4.64937157296293E-15,75.93,111.621879271594));
#1696=CARTESIAN_POINT('Origin',(-75.93,9.29874314592585E-15,111.621879271594));
#1697=CARTESIAN_POINT('',(-0.0707106781186675,-76.0007106781187,111.621879271594));
#1698=CARTESIAN_POINT('Origin',(-9.29874314592585E-15,-75.93,111.621879271594));
#1699=CARTESIAN_POINT('',(-76.0007106781187,-0.0707106781186455,111.621879271594));
#1700=CARTESIAN_POINT('',(-76.0007106781187,-0.0707106781186455,111.621879271594));
#1701=CARTESIAN_POINT('Origin',(-75.93,9.29874314592585E-15,111.621879271594));
#1702=CARTESIAN_POINT('Origin',(-9.29874314592585E-15,-75.93,111.621879271594));
#1703=CARTESIAN_POINT('Origin',(-75.93,9.29874314592585E-15,111.621879271594));
#1704=CARTESIAN_POINT('Origin',(-1.39481147188888E-14,-75.93,111.621879271594));
#1705=CARTESIAN_POINT('',(76.0007106781187,-0.0707106781186721,111.621879271594));
#1706=CARTESIAN_POINT('Origin',(75.93,-1.39481147188888E-14,111.621879271594));
#1707=CARTESIAN_POINT('',(0.0707106781186408,-76.0007106781187,111.621879271594));
#1708=CARTESIAN_POINT('',(0.0707106781186408,-76.0007106781187,111.621879271594));
#1709=CARTESIAN_POINT('Origin',(-1.39481147188888E-14,-75.93,111.621879271594));
#1710=CARTESIAN_POINT('Origin',(75.93,-1.39481147188888E-14,111.621879271594));
#1711=CARTESIAN_POINT('Origin',(-1.39481147188888E-14,-75.93,111.621879271594));
#1712=CARTESIAN_POINT('Origin',(40.72,0.,172.5));
#1713=CARTESIAN_POINT('',(0.0707106781186582,40.7907106781187,172.5));
#1714=CARTESIAN_POINT('Origin',(0.,40.72,172.5));
#1715=CARTESIAN_POINT('',(40.7907106781187,0.0707106781186548,172.5));
#1716=CARTESIAN_POINT('',(40.7907106781187,0.0707106781186548,172.5));
#1717=CARTESIAN_POINT('Origin',(40.72,0.,172.5));
#1718=CARTESIAN_POINT('Origin',(0.,40.72,172.5));
#1719=CARTESIAN_POINT('Origin',(40.72,0.,172.5));
#1720=CARTESIAN_POINT('Origin',(2.49338088306401E-15,40.72,172.5));
#1721=CARTESIAN_POINT('',(-40.7907106781187,0.0707106781186607,172.5));
#1722=CARTESIAN_POINT('Origin',(-40.72,2.49338088306401E-15,172.5));
#1723=CARTESIAN_POINT('',(-0.0707106781186523,40.7907106781187,172.5));
#1724=CARTESIAN_POINT('',(-0.0707106781186523,40.7907106781187,172.5));
#1725=CARTESIAN_POINT('Origin',(2.49338088306401E-15,40.72,172.5));
#1726=CARTESIAN_POINT('Origin',(-40.72,2.49338088306401E-15,172.5));
#1727=CARTESIAN_POINT('Origin',(2.49338088306401E-15,40.72,172.5));
#1728=CARTESIAN_POINT('Origin',(-40.72,4.98676176612802E-15,172.5));
#1729=CARTESIAN_POINT('',(-0.0707106781186632,-40.7907106781187,172.5));
#1730=CARTESIAN_POINT('Origin',(-4.98676176612802E-15,-40.72,172.5));
#1731=CARTESIAN_POINT('',(-40.7907106781187,-0.0707106781186498,172.5));
#1732=CARTESIAN_POINT('',(-40.7907106781187,-0.0707106781186498,172.5));
#1733=CARTESIAN_POINT('Origin',(-40.72,4.98676176612802E-15,172.5));
#1734=CARTESIAN_POINT('Origin',(-4.98676176612802E-15,-40.72,172.5));
#1735=CARTESIAN_POINT('Origin',(-40.72,4.98676176612802E-15,172.5));
#1736=CARTESIAN_POINT('Origin',(-7.48014264919203E-15,-40.72,172.5));
#1737=CARTESIAN_POINT('',(40.7907106781187,-0.0707106781186657,172.5));
#1738=CARTESIAN_POINT('Origin',(40.72,-7.48014264919203E-15,172.5));
#1739=CARTESIAN_POINT('',(0.0707106781186473,-40.7907106781187,172.5));
#1740=CARTESIAN_POINT('',(0.0707106781186473,-40.7907106781187,172.5));
#1741=CARTESIAN_POINT('Origin',(-7.48014264919203E-15,-40.72,172.5));
#1742=CARTESIAN_POINT('Origin',(40.72,-7.48014264919203E-15,172.5));
#1743=CARTESIAN_POINT('Origin',(-7.48014264919203E-15,-40.72,172.5));
#1744=CARTESIAN_POINT('',(0.,0.,0.));
#1745=CARTESIAN_POINT('',(0.,0.,0.));
#1746=CARTESIAN_POINT('',(0.,0.,0.));
#1747=CARTESIAN_POINT('',(0.,0.,0.));
#1748=CARTESIAN_POINT('',(0.,0.,0.));
#1749=CARTESIAN_POINT('',(0.,0.,0.));
#1750=CARTESIAN_POINT('',(0.,0.,0.));
#1751=CARTESIAN_POINT('',(0.,0.,0.));
#1752=UNCERTAINTY_MEASURE_WITH_UNIT(LENGTH_MEASURE(0.001),#1772,
'DISTANCE_ACCURACY_VALUE',
'Maximum model space distance between geometric entities at asserted c
onnectivities');
#1753=UNCERTAINTY_MEASURE_WITH_UNIT(LENGTH_MEASURE(0.001),#1772,
'DISTANCE_ACCURACY_VALUE',
'Maximum model space distance between geometric entities at asserted c
onnectivities');
#1754=UNCERTAINTY_MEASURE_WITH_UNIT(LENGTH_MEASURE(0.001),#1772,
'DISTANCE_ACCURACY_VALUE',
'Maximum model space distance between geometric entities at asserted c
onnectivities');
#1755=UNCERTAINTY_MEASURE_WITH_UNIT(LENGTH_MEASURE(0.001),#1772,
'DISTANCE_ACCURACY_VALUE',
'Maximum model space distance between geometric entities at asserted c
onnectivities');
#1756=UNCERTAINTY_MEASURE_WITH_UNIT(LENGTH_MEASURE(0.001),#1772,
'DISTANCE_ACCURACY_VALUE',
'Maximum model space distance between geometric entities at asserted c
onnectivities');
#1757=UNCERTAINTY_MEASURE_WITH_UNIT(LENGTH_MEASURE(0.001),#1772,
'DISTANCE_ACCURACY_VALUE',
'Maximum model space distance between geometric entities at asserted c
onnectivities');
#1758=UNCERTAINTY_MEASURE_WITH_UNIT(LENGTH_MEASURE(0.001),#1772,
'DISTANCE_ACCURACY_VALUE',
'Maximum model space distance between geometric entities at asserted c
onnectivities');
#1759=UNCERTAINTY_MEASURE_WITH_UNIT(LENGTH_MEASURE(0.001),#1772,
'DISTANCE_ACCURACY_VALUE',
'Maximum model space distance between geometric entities at asserted c
onnectivities');
#1760=UNCERTAINTY_MEASURE_WITH_UNIT(LENGTH_MEASURE(0.001),#1772,
'DISTANCE_ACCURACY_VALUE',
'Maximum model space distance between geometric entities at asserted c
onnectivities');
#1761=UNCERTAINTY_MEASURE_WITH_UNIT(LENGTH_MEASURE(0.001),#1772,
'DISTANCE_ACCURACY_VALUE',
'Maximum model space distance between geometric entities at asserted c
onnectivities');
#1762=(
GEOMETRIC_REPRESENTATION_CONTEXT(3)
GLOBAL_UNCERTAINTY_ASSIGNED_CONTEXT((#1752))
GLOBAL_UNIT_ASSIGNED_CONTEXT((#1772,#1774,#1775))
REPRESENTATION_CONTEXT('','3D')
);
#1763=(
GEOMETRIC_REPRESENTATION_CONTEXT(3)
GLOBAL_UNCERTAINTY_ASSIGNED_CONTEXT((#1753))
GLOBAL_UNIT_ASSIGNED_CONTEXT((#1772,#1774,#1775))
REPRESENTATION_CONTEXT('','3D')
);
#1764=(
GEOMETRIC_REPRESENTATION_CONTEXT(3)
GLOBAL_UNCERTAINTY_ASSIGNED_CONTEXT((#1754))
GLOBAL_UNIT_ASSIGNED_CONTEXT((#1772,#1774,#1775))
REPRESENTATION_CONTEXT('','3D')
);
#1765=(
GEOMETRIC_REPRESENTATION_CONTEXT(3)
GLOBAL_UNCERTAINTY_ASSIGNED_CONTEXT((#1755))
GLOBAL_UNIT_ASSIGNED_CONTEXT((#1772,#1774,#1775))
REPRESENTATION_CONTEXT('','3D')
);
#1766=(
GEOMETRIC_REPRESENTATION_CONTEXT(3)
GLOBAL_UNCERTAINTY_ASSIGNED_CONTEXT((#1756))
GLOBAL_UNIT_ASSIGNED_CONTEXT((#1772,#1774,#1775))
REPRESENTATION_CONTEXT('','3D')
);
#1767=(
GEOMETRIC_REPRESENTATION_CONTEXT(3)
GLOBAL_UNCERTAINTY_ASSIGNED_CONTEXT((#1757))
GLOBAL_UNIT_ASSIGNED_CONTEXT((#1772,#1774,#1775))
REPRESENTATION_CONTEXT('','3D')
);
#1768=(
GEOMETRIC_REPRESENTATION_CONTEXT(3)
GLOBAL_UNCERTAINTY_ASSIGNED_CONTEXT((#1758))
GLOBAL_UNIT_ASSIGNED_CONTEXT((#1772,#1774,#1775))
REPRESENTATION_CONTEXT('','3D')
);
#1769=(
GEOMETRIC_REPRESENTATION_CONTEXT(3)
GLOBAL_UNCERTAINTY_ASSIGNED_CONTEXT((#1759))
GLOBAL_UNIT_ASSIGNED_CONTEXT((#1772,#1774,#1775))
REPRESENTATION_CONTEXT('','3D')
);
#1770=(
GEOMETRIC_REPRESENTATION_CONTEXT(3)
GLOBAL_UNCERTAINTY_ASSIGNED_CONTEXT((#1760))
GLOBAL_UNIT_ASSIGNED_CONTEXT((#1772,#1774,#1775))
REPRESENTATION_CONTEXT('','3D')
);
#1771=(
GEOMETRIC_REPRESENTATION_CONTEXT(3)
GLOBAL_UNCERTAINTY_ASSIGNED_CONTEXT((#1761))
GLOBAL_UNIT_ASSIGNED_CONTEXT((#1772,#1774,#1775))
REPRESENTATION_CONTEXT('','3D')
);
#1772=(
LENGTH_UNIT()
NAMED_UNIT(*)
SI_UNIT(.CENTI.,.METRE.)
);
#1773=(
LENGTH_UNIT()
NAMED_UNIT(*)
SI_UNIT($,.METRE.)
);
#1774=(
NAMED_UNIT(*)
PLANE_ANGLE_UNIT()
SI_UNIT($,.RADIAN.)
);
#1775=(
NAMED_UNIT(*)
SI_UNIT($,.STERADIAN.)
SOLID_ANGLE_UNIT()
);
#1776=SHAPE_DEFINITION_REPRESENTATION(#1785,#1802);
#1777=SHAPE_DEFINITION_REPRESENTATION(#1786,#1803);
#1778=SHAPE_DEFINITION_REPRESENTATION(#1787,#1804);
#1779=SHAPE_DEFINITION_REPRESENTATION(#1788,#1805);
#1780=SHAPE_DEFINITION_REPRESENTATION(#1789,#1806);
#1781=SHAPE_DEFINITION_REPRESENTATION(#1790,#1807);
#1782=SHAPE_DEFINITION_REPRESENTATION(#1791,#1808);
#1783=SHAPE_DEFINITION_REPRESENTATION(#1792,#1809);
#1784=SHAPE_DEFINITION_REPRESENTATION(#1793,#1810);
#1785=PRODUCT_DEFINITION_SHAPE('',$,#1812);
#1786=PRODUCT_DEFINITION_SHAPE('',$,#1813);
#1787=PRODUCT_DEFINITION_SHAPE('',$,#1814);
#1788=PRODUCT_DEFINITION_SHAPE('',$,#1815);
#1789=PRODUCT_DEFINITION_SHAPE('',$,#1816);
#1790=PRODUCT_DEFINITION_SHAPE('',$,#1817);
#1791=PRODUCT_DEFINITION_SHAPE('',$,#1818);
#1792=PRODUCT_DEFINITION_SHAPE('',$,#1819);
#1793=PRODUCT_DEFINITION_SHAPE('',$,#1820);
#1794=PRODUCT_DEFINITION_SHAPE($,$,#35);
#1795=PRODUCT_DEFINITION_SHAPE($,$,#36);
#1796=PRODUCT_DEFINITION_SHAPE($,$,#37);
#1797=PRODUCT_DEFINITION_SHAPE($,$,#38);
#1798=PRODUCT_DEFINITION_SHAPE($,$,#39);
#1799=PRODUCT_DEFINITION_SHAPE($,$,#40);
#1800=PRODUCT_DEFINITION_SHAPE($,$,#41);
#1801=PRODUCT_DEFINITION_SHAPE($,$,#42);
#1802=SHAPE_REPRESENTATION('',(#1008,#1154,#1155,#1156,#1157,#1158,#1159,
#1160,#1161),#1762);
#1803=SHAPE_REPRESENTATION('',(#1009),#1763);
#1804=SHAPE_REPRESENTATION('',(#1034),#1764);
#1805=SHAPE_REPRESENTATION('',(#1047),#1765);
#1806=SHAPE_REPRESENTATION('',(#1073),#1766);
#1807=SHAPE_REPRESENTATION('',(#1099),#1767);
#1808=SHAPE_REPRESENTATION('',(#1110,#44),#1768);
#1809=SHAPE_REPRESENTATION('',(#1112),#1769);
#1810=SHAPE_REPRESENTATION('',(#1113),#1770);
#1811=PRODUCT_DEFINITION_CONTEXT('part definition',#1840,'design');
#1812=PRODUCT_DEFINITION('2026-05-16-02-54-03-272','Ads\X2\0131\X0\z',#1821,
#1811);
#1813=PRODUCT_DEFINITION('2026-05-16-02-56-36-699','Mast',#1822,#1811);
#1814=PRODUCT_DEFINITION('2026-05-16-02-58-38-807','Socket',#1823,#1811);
#1815=PRODUCT_DEFINITION('2026-05-16-03-09-09-495','LowerCanopy',#1824,
#1811);
#1816=PRODUCT_DEFINITION('2026-05-16-03-10-03-751','UpperCanopy',#1825,
#1811);
#1817=PRODUCT_DEFINITION('2026-05-16-03-14-14-117','TopMast',#1826,#1811);
#1818=PRODUCT_DEFINITION('2026-05-16-03-16-11-768','Fabrics',#1827,#1811);
#1819=PRODUCT_DEFINITION('Rigging','Rigging',#1828,#1811);
#1820=PRODUCT_DEFINITION('Storage','Storage',#1829,#1811);
#1821=PRODUCT_DEFINITION_FORMATION('',$,#1842);
#1822=PRODUCT_DEFINITION_FORMATION('',$,#1843);
#1823=PRODUCT_DEFINITION_FORMATION('',$,#1844);
#1824=PRODUCT_DEFINITION_FORMATION('',$,#1845);
#1825=PRODUCT_DEFINITION_FORMATION('',$,#1846);
#1826=PRODUCT_DEFINITION_FORMATION('',$,#1847);
#1827=PRODUCT_DEFINITION_FORMATION('',$,#1848);
#1828=PRODUCT_DEFINITION_FORMATION('',$,#1849);
#1829=PRODUCT_DEFINITION_FORMATION('',$,#1850);
#1830=PRODUCT_RELATED_PRODUCT_CATEGORY('Ads\X2\0131\X0\z','Ads\X2\0131\X0\z',
(#1842));
#1831=PRODUCT_RELATED_PRODUCT_CATEGORY('Mast','Mast',(#1843));
#1832=PRODUCT_RELATED_PRODUCT_CATEGORY('Socket','Socket',(#1844));
#1833=PRODUCT_RELATED_PRODUCT_CATEGORY('LowerCanopy','LowerCanopy',(#1845));
#1834=PRODUCT_RELATED_PRODUCT_CATEGORY('UpperCanopy','UpperCanopy',(#1846));
#1835=PRODUCT_RELATED_PRODUCT_CATEGORY('TopMast','TopMast',(#1847));
#1836=PRODUCT_RELATED_PRODUCT_CATEGORY('Fabrics','Fabrics',(#1848));
#1837=PRODUCT_RELATED_PRODUCT_CATEGORY('Rigging','Rigging',(#1849));
#1838=PRODUCT_RELATED_PRODUCT_CATEGORY('Storage','Storage',(#1850));
#1839=APPLICATION_PROTOCOL_DEFINITION('international standard',
'automotive_design',2009,#1840);
#1840=APPLICATION_CONTEXT(
'Core Data for Automotive Mechanical Design Process');
#1841=PRODUCT_CONTEXT('part definition',#1840,'mechanical');
#1842=PRODUCT('2026-05-16-02-54-03-272','Ads\X2\0131\X0\z',$,(#1841));
#1843=PRODUCT('2026-05-16-02-56-36-699','Mast',$,(#1841));
#1844=PRODUCT('2026-05-16-02-58-38-807','Socket',$,(#1841));
#1845=PRODUCT('2026-05-16-03-09-09-495','LowerCanopy',$,(#1841));
#1846=PRODUCT('2026-05-16-03-10-03-751','UpperCanopy',$,(#1841));
#1847=PRODUCT('2026-05-16-03-14-14-117','TopMast',$,(#1841));
#1848=PRODUCT('2026-05-16-03-16-11-768','Fabrics',$,(#1841));
#1849=PRODUCT('Rigging','Rigging',$,(#1841));
#1850=PRODUCT('Storage','Storage',$,(#1841));
#1851=PRESENTATION_STYLE_ASSIGNMENT((#1852));
#1852=SURFACE_STYLE_USAGE(.BOTH.,#1853);
#1853=SURFACE_SIDE_STYLE('',(#1854));
#1854=SURFACE_STYLE_FILL_AREA(#1855);
#1855=FILL_AREA_STYLE('\X\C7elik - Saten',(#1856));
#1856=FILL_AREA_STYLE_COLOUR('\X\C7elik - Saten',#1857);
#1857=COLOUR_RGB('\X\C7elik - Saten',0.627450980392157,0.627450980392157,
0.627450980392157);
ENDSEC;
END-ISO-10303-21;
