0
SECTION
2
HEADER
9
$ACADVER
1
AC1009
9
$INSUNITS
70
4
9
$EXTMIN
10
-2200.0
20
-300.0
30
0.0
9
$EXTMAX
10
1300.0
20
2400.0
30
0.0
0
ENDSEC
0
SECTION
2
TABLES
0
TABLE
2
LTYPE
70
3
0
LTYPE
2
CONTINUOUS
70
0
3
Solid line
72
65
73
0
40
0.0
0
LTYPE
2
DASHED
70
0
3
__ __ __
72
65
73
2
40
15.0
49
10.0
49
-5.0
0
LTYPE
2
CENTER
70
0
3
____ _ ____
72
65
73
4
40
50.0
49
30.0
49
-6.0
49
6.0
49
-6.0
0
ENDTAB
0
TABLE
2
LAYER
70
10
0
LAYER
2
CUT
70
0
62
7
6
CONTINUOUS
0
LAYER
2
VISIBLE
70
0
62
7
6
CONTINUOUS
0
LAYER
2
HIDDEN
70
0
62
8
6
DASHED
0
LAYER
2
CENTER
70
0
62
4
6
CENTER
0
LAYER
2
SPARS
70
0
62
7
6
CONTINUOUS
0
LAYER
2
ROPES
70
0
62
3
6
CONTINUOUS
0
LAYER
2
GROUND
70
0
62
7
6
CONTINUOUS
0
LAYER
2
DIMS
70
0
62
1
6
CONTINUOUS
0
LAYER
2
LEVELS
70
0
62
1
6
CONTINUOUS
0
LAYER
2
TEXT
70
0
62
2
6
CONTINUOUS
0
ENDTAB
0
ENDSEC
0
SECTION
2
ENTITIES
0
POLYLINE
8
CUT
66
1
10
0.0
20
0.0
30
0.0
70
1
0
VERTEX
8
CUT
10
-45.000
20
-150.000
30
0.0
0
VERTEX
8
CUT
10
45.000
20
-150.000
30
0.0
0
VERTEX
8
CUT
10
45.000
20
0.000
30
0.0
0
VERTEX
8
CUT
10
-45.000
20
0.000
30
0.0
0
SEQEND
8
CUT
0
POLYLINE
8
CUT
66
1
10
0.0
20
0.0
30
0.0
70
1
0
VERTEX
8
CUT
10
-50.000
20
0.000
30
0.0
0
VERTEX
8
CUT
10
50.000
20
0.000
30
0.0
0
VERTEX
8
CUT
10
50.000
20
500.000
30
0.0
0
VERTEX
8
CUT
10
-50.000
20
500.000
30
0.0
0
SEQEND
8
CUT
0
POLYLINE
8
CUT
66
1
10
0.0
20
0.0
30
0.0
70
1
0
VERTEX
8
CUT
10
-20.000
20
500.000
30
0.0
0
VERTEX
8
CUT
10
20.000
20
500.000
30
0.0
0
VERTEX
8
CUT
10
20.000
20
1350.000
30
0.0
0
VERTEX
8
CUT
10
-20.000
20
1350.000
30
0.0
0
SEQEND
8
CUT
0
POLYLINE
8
CUT
66
1
10
0.0
20
0.0
30
0.0
70
1
0
VERTEX
8
CUT
10
-10.000
20
1350.000
30
0.0
0
VERTEX
8
CUT
10
10.000
20
1350.000
30
0.0
0
VERTEX
8
CUT
10
10.000
20
2200.000
30
0.0
0
VERTEX
8
CUT
10
-10.000
20
2200.000
30
0.0
0
SEQEND
8
CUT
0
POLYLINE
8
CUT
66
1
10
0.0
20
0.0
30
0.0
70
1
0
VERTEX
8
CUT
10
-40.000
20
185.000
30
0.0
0
VERTEX
8
CUT
10
40.000
20
185.000
30
0.0
0
VERTEX
8
CUT
10
40.000
20
215.000
30
0.0
0
VERTEX
8
CUT
10
-40.000
20
215.000
30
0.0
0
SEQEND
8
CUT
0
LINE
8
HIDDEN
10
-20.000
20
420.000
30
0.0
11
-20.000
21
500.000
31
0.0
0
LINE
8
HIDDEN
10
20.000
20
420.000
30
0.0
11
20.000
21
500.000
31
0.0
0
LINE
8
HIDDEN
10
-20.000
20
420.000
30
0.0
11
20.000
21
420.000
31
0.0
0
LINE
8
HIDDEN
10
-10.000
20
1270.000
30
0.0
11
-10.000
21
1350.000
31
0.0
0
LINE
8
HIDDEN
10
10.000
20
1270.000
30
0.0
11
10.000
21
1350.000
31
0.0
0
LINE
8
HIDDEN
10
-10.000
20
1270.000
30
0.0
11
10.000
21
1270.000
31
0.0
0
LINE
8
CENTER
10
0.000
20
-160.000
30
0.0
11
0.000
21
2300.000
31
0.0
0
LINE
8
SPARS
10
35.749
20
205.749
30
0.0
11
759.249
21
740.749
31
0.0
0
LINE
8
SPARS
10
44.251
20
194.251
30
0.0
11
767.751
21
729.251
31
0.0
0
LINE
8
SPARS
10
759.249
20
740.749
30
0.0
11
767.751
21
729.251
31
0.0
0
LINE
8
SPARS
10
-44.251
20
194.251
30
0.0
11
-767.751
21
729.251
31
0.0
0
LINE
8
SPARS
10
-35.749
20
205.749
30
0.0
11
-759.249
21
740.749
31
0.0
0
LINE
8
SPARS
10
-767.751
20
729.251
30
0.0
11
-759.249
21
740.749
31
0.0
0
POLYLINE
8
VISIBLE
66
1
10
0.0
20
0.0
30
0.0
70
0
0
VERTEX
8
VISIBLE
10
-764.856
20
735.337
30
0.0
0
VERTEX
8
VISIBLE
10
-689.832
20
716.548
30
0.0
0
VERTEX
8
VISIBLE
10
-614.348
20
699.703
30
0.0
0
VERTEX
8
VISIBLE
10
-538.454
20
684.814
30
0.0
0
VERTEX
8
VISIBLE
10
-462.201
20
671.889
30
0.0
0
VERTEX
8
VISIBLE
10
-385.640
20
660.938
30
0.0
0
VERTEX
8
VISIBLE
10
-308.821
20
651.968
30
0.0
0
VERTEX
8
VISIBLE
10
-231.796
20
644.986
30
0.0
0
VERTEX
8
VISIBLE
10
-154.617
20
639.995
30
0.0
0
VERTEX
8
VISIBLE
10
-77.334
20
636.999
30
0.0
0
VERTEX
8
VISIBLE
10
-0.000
20
636.000
30
0.0
0
VERTEX
8
VISIBLE
10
77.334
20
636.999
30
0.0
0
VERTEX
8
VISIBLE
10
154.617
20
639.995
30
0.0
0
VERTEX
8
VISIBLE
10
231.796
20
644.986
30
0.0
0
VERTEX
8
VISIBLE
10
308.821
20
651.968
30
0.0
0
VERTEX
8
VISIBLE
10
385.640
20
660.938
30
0.0
0
VERTEX
8
VISIBLE
10
462.201
20
671.889
30
0.0
0
VERTEX
8
VISIBLE
10
538.454
20
684.814
30
0.0
0
VERTEX
8
VISIBLE
10
614.348
20
699.703
30
0.0
0
VERTEX
8
VISIBLE
10
689.832
20
716.548
30
0.0
0
VERTEX
8
VISIBLE
10
764.856
20
735.337
30
0.0
0
SEQEND
8
VISIBLE
0
POLYLINE
8
VISIBLE
66
1
10
0.0
20
0.0
30
0.0
70
0
0
VERTEX
8
VISIBLE
10
-270.280
20
1777.068
30
0.0
0
VERTEX
8
VISIBLE
10
-237.025
20
1769.486
30
0.0
0
VERTEX
8
VISIBLE
10
-203.559
20
1762.901
30
0.0
0
VERTEX
8
VISIBLE
10
-169.911
20
1757.320
30
0.0
0
VERTEX
8
VISIBLE
10
-136.111
20
1752.746
30
0.0
0
VERTEX
8
VISIBLE
10
-102.190
20
1749.185
30
0.0
0
VERTEX
8
VISIBLE
10
-68.177
20
1746.638
30
0.0
0
VERTEX
8
VISIBLE
10
-34.104
20
1745.110
30
0.0
0
VERTEX
8
VISIBLE
10
-0.000
20
1744.600
30
0.0
0
VERTEX
8
VISIBLE
10
34.104
20
1745.110
30
0.0
0
VERTEX
8
VISIBLE
10
68.177
20
1746.638
30
0.0
0
VERTEX
8
VISIBLE
10
102.190
20
1749.185
30
0.0
0
VERTEX
8
VISIBLE
10
136.111
20
1752.746
30
0.0
0
VERTEX
8
VISIBLE
10
169.911
20
1757.320
30
0.0
0
VERTEX
8
VISIBLE
10
203.559
20
1762.901
30
0.0
0
VERTEX
8
VISIBLE
10
237.025
20
1769.486
30
0.0
0
VERTEX
8
VISIBLE
10
270.280
20
1777.068
30
0.0
0
SEQEND
8
VISIBLE
0
LINE
8
VISIBLE
10
0.000
20
2200.000
30
0.0
11
0.000
21
2280.000
31
0.0
0
POLYLINE
8
VISIBLE
66
1
10
0.0
20
0.0
30
0.0
70
0
0
VERTEX
8
VISIBLE
10
100.000
20
2280.000
30
0.0
0
VERTEX
8
VISIBLE
10
98.296
20
2292.941
30
0.0
0
VERTEX
8
VISIBLE
10
93.301
20
2305.000
30
0.0
0
VERTEX
8
VISIBLE
10
85.355
20
2315.355
30
0.0
0
VERTEX
8
VISIBLE
10
75.000
20
2323.301
30
0.0
0
VERTEX
8
VISIBLE
10
62.941
20
2328.296
30
0.0
0
VERTEX
8
VISIBLE
10
50.000
20
2330.000
30
0.0
0
VERTEX
8
VISIBLE
10
37.059
20
2328.296
30
0.0
0
VERTEX
8
VISIBLE
10
25.000
20
2323.301
30
0.0
0
VERTEX
8
VISIBLE
10
14.645
20
2315.355
30
0.0
0
VERTEX
8
VISIBLE
10
6.699
20
2305.000
30
0.0
0
VERTEX
8
VISIBLE
10
1.704
20
2292.941
30
0.0
0
VERTEX
8
VISIBLE
10
0.000
20
2280.000
30
0.0
0
SEQEND
8
VISIBLE
0
POLYLINE
8
VISIBLE
66
1
10
0.0
20
0.0
30
0.0
70
0
0
VERTEX
8
VISIBLE
10
0.000
20
2280.000
30
0.0
0
VERTEX
8
VISIBLE
10
-1.704
20
2292.941
30
0.0
0
VERTEX
8
VISIBLE
10
-6.699
20
2305.000
30
0.0
0
VERTEX
8
VISIBLE
10
-14.645
20
2315.355
30
0.0
0
VERTEX
8
VISIBLE
10
-25.000
20
2323.301
30
0.0
0
VERTEX
8
VISIBLE
10
-37.059
20
2328.296
30
0.0
0
VERTEX
8
VISIBLE
10
-50.000
20
2330.000
30
0.0
0
VERTEX
8
VISIBLE
10
-62.941
20
2328.296
30
0.0
0
VERTEX
8
VISIBLE
10
-75.000
20
2323.301
30
0.0
0
VERTEX
8
VISIBLE
10
-85.355
20
2315.355
30
0.0
0
VERTEX
8
VISIBLE
10
-93.301
20
2305.000
30
0.0
0
VERTEX
8
VISIBLE
10
-98.296
20
2292.941
30
0.0
0
VERTEX
8
VISIBLE
10
-100.000
20
2280.000
30
0.0
0
SEQEND
8
VISIBLE
0
LINE
8
ROPES
10
0.000
20
2230.000
30
0.0
11
270.000
21
1777.000
31
0.0
0
LINE
8
ROPES
10
0.000
20
2230.000
30
0.0
11
-270.000
21
1777.000
31
0.0
0
LINE
8
ROPES
10
0.000
20
2230.000
30
0.0
11
763.500
21
735.000
31
0.0
0
LINE
8
ROPES
10
0.000
20
2230.000
30
0.0
11
-763.500
21
735.000
31
0.0
0
LINE
8
GROUND
10
-1000.000
20
0.000
30
0.0
11
1000.000
21
0.000
31
0.0
0
LINE
8
DIMS
10
1150.000
20
-150.000
30
0.0
11
1150.000
21
2330.000
31
0.0
0
LINE
8
DIMS
10
100.000
20
2330.000
30
0.0
11
1150.000
21
2330.000
31
0.0
0
LINE
8
DIMS
10
1135.000
20
2315.000
30
0.0
11
1165.000
21
2345.000
31
0.0
0
LINE
8
DIMS
10
10.000
20
2200.000
30
0.0
11
1150.000
21
2200.000
31
0.0
0
LINE
8
DIMS
10
1135.000
20
2185.000
30
0.0
11
1165.000
21
2215.000
31
0.0
0
LINE
8
DIMS
10
270.000
20
1777.000
30
0.0
11
1150.000
21
1777.000
31
0.0
0
LINE
8
DIMS
10
1135.000
20
1762.000
30
0.0
11
1165.000
21
1792.000
31
0.0
0
LINE
8
DIMS
10
763.500
20
735.000
30
0.0
11
1150.000
21
735.000
31
0.0
0
LINE
8
DIMS
10
1135.000
20
720.000
30
0.0
11
1165.000
21
750.000
31
0.0
0
LINE
8
DIMS
10
50.000
20
500.000
30
0.0
11
1150.000
21
500.000
31
0.0
0
LINE
8
DIMS
10
1135.000
20
485.000
30
0.0
11
1165.000
21
515.000
31
0.0
0
LINE
8
DIMS
10
50.000
20
0.000
30
0.0
11
1150.000
21
0.000
31
0.0
0
LINE
8
DIMS
10
1135.000
20
-15.000
30
0.0
11
1165.000
21
15.000
31
0.0
0
LINE
8
DIMS
10
45.000
20
-150.000
30
0.0
11
1150.000
21
-150.000
31
0.0
0
LINE
8
DIMS
10
1135.000
20
-165.000
30
0.0
11
1165.000
21
-135.000
31
0.0
0
TEXT
8
DIMS
10
1205.000
20
2265.000
30
0.0
40
42.00
1
130
50
90.00
72
1
11
1205.000
21
2265.000
31
0.0
0
TEXT
8
DIMS
10
1205.000
20
1988.500
30
0.0
40
42.00
1
423
50
90.00
72
1
11
1205.000
21
1988.500
31
0.0
0
TEXT
8
DIMS
10
1205.000
20
1256.000
30
0.0
40
42.00
1
1042
50
90.00
72
1
11
1205.000
21
1256.000
31
0.0
0
TEXT
8
DIMS
10
1205.000
20
617.500
30
0.0
40
42.00
1
235
50
90.00
72
1
11
1205.000
21
617.500
31
0.0
0
TEXT
8
DIMS
10
1205.000
20
250.000
30
0.0
40
42.00
1
500
50
90.00
72
1
11
1205.000
21
250.000
31
0.0
0
TEXT
8
DIMS
10
1205.000
20
-75.000
30
0.0
40
42.00
1
150
50
90.00
72
1
11
1205.000
21
-75.000
31
0.0
0
LINE
8
LEVELS
10
100.000
20
2330.000
30
0.0
11
820.000
21
2330.000
31
0.0
0
TEXT
8
LEVELS
10
840.000
20
2342.000
30
0.0
40
42.00
1
+2.330
0
LINE
8
LEVELS
10
10.000
20
2200.000
30
0.0
11
820.000
21
2200.000
31
0.0
0
TEXT
8
LEVELS
10
840.000
20
2212.000
30
0.0
40
42.00
1
+2.200
0
LINE
8
LEVELS
10
270.000
20
1777.000
30
0.0
11
820.000
21
1777.000
31
0.0
0
TEXT
8
LEVELS
10
840.000
20
1789.000
30
0.0
40
42.00
1
+1.777
0
LINE
8
LEVELS
10
763.500
20
735.000
30
0.0
11
820.000
21
735.000
31
0.0
0
TEXT
8
LEVELS
10
840.000
20
747.000
30
0.0
40
42.00
1
+0.735
0
LINE
8
LEVELS
10
50.000
20
500.000
30
0.0
11
820.000
21
500.000
31
0.0
0
TEXT
8
LEVELS
10
840.000
20
512.000
30
0.0
40
42.00
1
+0.500
0
LINE
8
LEVELS
10
50.000
20
0.000
30
0.0
11
820.000
21
0.000
31
0.0
0
TEXT
8
LEVELS
10
840.000
20
12.000
30
0.0
40
42.00
1
+0.000 FFL
0
LINE
8
LEVELS
10
45.000
20
-150.000
30
0.0
11
820.000
21
-150.000
31
0.0
0
TEXT
8
LEVELS
10
840.000
20
-138.000
30
0.0
40
42.00
1
-0.150
0
LINE
8
DIMS
10
-763.500
20
735.000
30
0.0
11
-763.500
21
870.000
31
0.0
0
LINE
8
DIMS
10
763.500
20
735.000
30
0.0
11
763.500
21
870.000
31
0.0
0
LINE
8
DIMS
10
-763.500
20
850.000
30
0.0
11
-150.000
21
850.000
31
0.0
0
LINE
8
DIMS
10
150.000
20
850.000
30
0.0
11
763.500
21
850.000
31
0.0
0
TEXT
8
DIMS
10
0.000
20
832.000
30
0.0
40
42.00
1
1527
72
1
11
0.000
21
832.000
31
0.0
0
LINE
8
DIMS
10
-270.000
20
1777.000
30
0.0
11
-270.000
21
1920.000
31
0.0
0
LINE
8
DIMS
10
270.000
20
1777.000
30
0.0
11
270.000
21
1920.000
31
0.0
0
LINE
8
DIMS
10
-270.000
20
1900.000
30
0.0
11
-120.000
21
1900.000
31
0.0
0
LINE
8
DIMS
10
120.000
20
1900.000
30
0.0
11
270.000
21
1900.000
31
0.0
0
TEXT
8
DIMS
10
0.000
20
1882.000
30
0.0
40
42.00
1
540
72
1
11
0.000
21
1882.000
31
0.0
0
TEXT
8
TEXT
10
-1100.000
20
2300.000
30
0.0
40
45.00
1
4 kollu paslanmaz kanca
72
2
11
-1100.000
21
2300.000
31
0.0
0
LINE
8
TEXT
10
-1070.000
20
2315.000
30
0.0
11
-100.000
21
2280.000
31
0.0
0
TEXT
8
TEXT
10
-1100.000
20
2080.000
30
0.0
40
45.00
1
Teleskopik direk seg3 %%C20
72
2
11
-1100.000
21
2080.000
31
0.0
0
LINE
8
TEXT
10
-1070.000
20
2095.000
30
0.0
11
0.000
21
1900.000
31
0.0
0
TEXT
8
TEXT
10
-1100.000
20
1820.000
30
0.0
40
45.00
1
Kanopi panel 540x500
72
2
11
-1100.000
21
1820.000
31
0.0
0
LINE
8
TEXT
10
-1070.000
20
1835.000
30
0.0
11
-270.000
21
1777.000
31
0.0
0
TEXT
8
TEXT
10
-1100.000
20
1500.000
30
0.0
40
45.00
1
Gergi halati %%C2.2
72
2
11
-1100.000
21
1500.000
31
0.0
0
LINE
8
TEXT
10
-1070.000
20
1515.000
30
0.0
11
-424.000
21
1400.000
31
0.0
0
TEXT
8
TEXT
10
-1100.000
20
1150.000
30
0.0
40
45.00
1
Teleskopik direk seg2 %%C40
72
2
11
-1100.000
21
1150.000
31
0.0
0
LINE
8
TEXT
10
-1070.000
20
1165.000
30
0.0
11
0.000
21
900.000
31
0.0
0
TEXT
8
TEXT
10
-1100.000
20
900.000
30
0.0
40
45.00
1
4 radyal spar %%C14.3 / L900
72
2
11
-1100.000
21
900.000
31
0.0
0
LINE
8
TEXT
10
-1070.000
20
915.000
30
0.0
11
-361.000
21
467.000
31
0.0
0
TEXT
8
TEXT
10
-1100.000
20
650.000
30
0.0
40
45.00
1
PE dokuma hammock
72
2
11
-1100.000
21
650.000
31
0.0
0
LINE
8
TEXT
10
-1070.000
20
665.000
30
0.0
11
-380.000
21
690.000
31
0.0
0
TEXT
8
TEXT
10
-1100.000
20
430.000
30
0.0
40
45.00
1
Hub %%C80
72
2
11
-1100.000
21
430.000
31
0.0
0
LINE
8
TEXT
10
-1070.000
20
445.000
30
0.0
11
-40.000
21
200.000
31
0.0
0
TEXT
8
TEXT
10
-1100.000
20
220.000
30
0.0
40
45.00
1
Taban segment seg1 %%C100
72
2
11
-1100.000
21
220.000
31
0.0
0
LINE
8
TEXT
10
-1070.000
20
235.000
30
0.0
11
-50.000
21
300.000
31
0.0
0
TEXT
8
TEXT
10
-1100.000
20
20.000
30
0.0
40
45.00
1
Zemin soketi %%C90 / 150 derin
72
2
11
-1100.000
21
20.000
31
0.0
0
LINE
8
TEXT
10
-1070.000
20
35.000
30
0.0
11
-45.000
21
-75.000
31
0.0
0
TEXT
8
TEXT
10
-1100.000
20
-260.000
30
0.0
40
70.00
1
PLUG-IN PARASITE  -  BOYUNA KESIT A-A
0
TEXT
8
TEXT
10
-1100.000
20
-340.000
30
0.0
40
45.00
1
Acik konum (deployed) . Olcek 1:20 . Tum olculer mm . Kot +0.000 = FFL
0
TEXT
8
TEXT
10
-1100.000
20
-410.000
30
0.0
40
45.00
1
caglarcelik architects . CCA . 2026-06-01 . Rev. B
0
ENDSEC
0
EOF
